<?xml version="1.0" encoding="UTF-8"?>
<svg version="1.1" xmlns="http://www.w3.org/2000/svg" width="1018" height="1018">
<path d="M0 0 C1.43257643 0.00222204 2.86515293 0.00439857 4.29772949 0.00653076 C24.52281503 0.04824619 44.51543856 0.32659758 64.5625 3.3125 C65.98518448 3.51858454 67.40787349 3.72463777 68.83056641 3.93066406 C111.66361564 10.21998317 153.54502887 20.62838176 193.5625 37.3125 C194.58811035 37.73998535 195.6137207 38.1674707 196.67041016 38.60791016 C244.20559603 58.61999356 288.0027126 85.21801888 327.5625 118.3125 C328.15869141 118.80959473 328.75488281 119.30668945 329.36914062 119.81884766 C342.16176372 130.52050452 354.24609878 141.92201065 366.0625 153.6875 C366.8040332 154.42436035 367.54556641 155.1612207 368.30957031 155.92041016 C372.9320081 160.5564372 377.29575624 165.34945618 381.5625 170.3125 C382.58416455 171.46901656 383.60755479 172.62401135 384.6328125 173.77734375 C392.11281273 182.25314099 399.12006697 191.00264098 405.88134766 200.06054688 C407.02345583 201.59043445 408.16909373 203.11769201 409.31787109 204.64257812 C417.55235334 215.57390392 425.38253835 226.65875503 432.5625 238.3125 C433.06072266 239.11961426 433.55894531 239.92672852 434.07226562 240.75830078 C443.34176067 255.87750518 451.60748373 271.46794084 459.5625 287.3125 C460.2119458 288.59737305 460.2119458 288.59737305 460.87451172 289.90820312 C486.41510361 340.75767844 501.44320186 397.86416642 507.5625 454.3125 C507.64863556 455.08304718 507.73477112 455.85359436 507.82351685 456.64749146 C509.71567515 474.00122644 509.92279611 491.31182769 509.875 508.75 C509.87277796 510.18257643 509.87060143 511.61515293 509.86846924 513.04772949 C509.82675381 533.27281503 509.54840242 553.26543856 506.5625 573.3125 C506.35641546 574.73518448 506.15036223 576.15787349 505.94433594 577.58056641 C499.65501683 620.41361564 489.24661824 662.29502887 472.5625 702.3125 C471.92127197 703.85091553 471.92127197 703.85091553 471.26708984 705.42041016 C451.25500644 752.95559603 424.65698112 796.7527126 391.5625 836.3125 C390.81685791 837.20678711 390.81685791 837.20678711 390.05615234 838.11914062 C379.35449548 850.91176372 367.95298935 862.99609878 356.1875 874.8125 C355.45063965 875.5540332 354.7137793 876.29556641 353.95458984 877.05957031 C349.3185628 881.6820081 344.52554382 886.04575624 339.5625 890.3125 C338.40598344 891.33416455 337.25098865 892.35755479 336.09765625 893.3828125 C327.62185901 900.86281273 318.87235902 907.87006697 309.81445312 914.63134766 C308.28456555 915.77345583 306.75730799 916.91909373 305.23242188 918.06787109 C294.30109608 926.30235334 283.21624497 934.13253835 271.5625 941.3125 C270.75538574 941.81072266 269.94827148 942.30894531 269.11669922 942.82226562 C253.99749482 952.09176067 238.40705916 960.35748373 222.5625 968.3125 C221.27762695 968.9619458 221.27762695 968.9619458 219.96679688 969.62451172 C169.11732156 995.16510361 112.01083358 1010.19320186 55.5625 1016.3125 C54.79195282 1016.39863556 54.02140564 1016.48477112 53.22750854 1016.57351685 C35.87377356 1018.46567515 18.56317231 1018.67279611 1.125 1018.625 C-0.30757643 1018.62277796 -1.74015293 1018.62060143 -3.17272949 1018.61846924 C-23.39781503 1018.57675381 -43.39043856 1018.29840242 -63.4375 1015.3125 C-64.86018448 1015.10641546 -66.28287349 1014.90036223 -67.70556641 1014.69433594 C-110.53861564 1008.40501683 -152.42002887 997.99661824 -192.4375 981.3125 C-193.46311035 980.88501465 -194.4887207 980.4575293 -195.54541016 980.01708984 C-243.08059603 960.00500644 -286.8777126 933.40698112 -326.4375 900.3125 C-327.33178711 899.56685791 -327.33178711 899.56685791 -328.24414062 898.80615234 C-341.03676372 888.10449548 -353.12109878 876.70298935 -364.9375 864.9375 C-365.6790332 864.20063965 -366.42056641 863.4637793 -367.18457031 862.70458984 C-371.8070081 858.0685628 -376.17075624 853.27554382 -380.4375 848.3125 C-381.45916455 847.15598344 -382.48255479 846.00098865 -383.5078125 844.84765625 C-390.98781273 836.37185901 -397.99506697 827.62235902 -404.75634766 818.56445312 C-405.89845583 817.03456555 -407.04409373 815.50730799 -408.19287109 813.98242188 C-416.42735334 803.05109608 -424.25753835 791.96624497 -431.4375 780.3125 C-432.18483398 779.10182861 -432.18483398 779.10182861 -432.94726562 777.86669922 C-442.21676067 762.74749482 -450.48248373 747.15705916 -458.4375 731.3125 C-459.0869458 730.02762695 -459.0869458 730.02762695 -459.74951172 728.71679688 C-485.29010361 677.86732156 -500.31820186 620.76083358 -506.4375 564.3125 C-506.52363556 563.54195282 -506.60977112 562.77140564 -506.69851685 561.97750854 C-508.59067515 544.62377356 -508.79779611 527.31317231 -508.75 509.875 C-508.74777796 508.44242357 -508.74560143 507.00984707 -508.74346924 505.57727051 C-508.70175381 485.35218497 -508.42340242 465.35956144 -505.4375 445.3125 C-505.23141546 443.88981552 -505.02536223 442.46712651 -504.81933594 441.04443359 C-498.53001683 398.21138436 -488.12161824 356.32997113 -471.4375 316.3125 C-471.01001465 315.28688965 -470.5825293 314.2612793 -470.14208984 313.20458984 C-450.13000644 265.66940397 -423.53198112 221.8722874 -390.4375 182.3125 C-389.94040527 181.71630859 -389.44331055 181.12011719 -388.93115234 180.50585938 C-378.22949548 167.71323628 -366.82798935 155.62890122 -355.0625 143.8125 C-354.32563965 143.0709668 -353.5887793 142.32943359 -352.82958984 141.56542969 C-348.1935628 136.9429919 -343.40054382 132.57924376 -338.4375 128.3125 C-337.28098344 127.29083545 -336.12598865 126.26744521 -334.97265625 125.2421875 C-326.49685901 117.76218727 -317.74735902 110.75493303 -308.68945312 103.99365234 C-307.15956555 102.85154417 -305.63230799 101.70590627 -304.10742188 100.55712891 C-293.17609608 92.32264666 -282.09124497 84.49246165 -270.4375 77.3125 C-269.63038574 76.81427734 -268.82327148 76.31605469 -267.99169922 75.80273438 C-252.87249482 66.53323933 -237.28205916 58.26751627 -221.4375 50.3125 C-220.15262695 49.6630542 -220.15262695 49.6630542 -218.84179688 49.00048828 C-167.99232156 23.45989639 -110.88583358 8.43179814 -54.4375 2.3125 C-53.66695282 2.22636444 -52.89640564 2.14022888 -52.10250854 2.05148315 C-34.74877356 0.15932485 -17.43817231 -0.04779611 0 0 Z " fill="#0C0B09" transform="translate(508.4375,-0.3125)"/>
<path d="M0 0 C0.75545105 0.00182281 1.5109021 0.00364563 2.28924561 0.00552368 C13.25981224 0.05017151 23.72620905 0.4388328 34.375 3.3125 C35.02452637 3.47878906 35.67405273 3.64507812 36.34326172 3.81640625 C47.04560873 6.59958342 56.71932611 10.96711044 66.375 16.3125 C67.85613281 17.12847656 67.85613281 17.12847656 69.3671875 17.9609375 C87.05537792 28.47131152 100.84547834 45.31725881 110.375 63.3125 C110.70564453 63.9302832 111.03628906 64.54806641 111.37695312 65.18457031 C117.49198718 76.92227484 120.9755883 89.52369755 124.578125 102.19360352 C127.24922319 111.57922374 130.14711623 120.82893313 133.3125 130.0625 C139.54150081 148.51208013 145.55375764 169.73709136 136.375 188.3125 C132.09987445 196.59059457 125.59705529 206.23848157 116.375 209.3125 C116.56835938 208.67183594 116.76171875 208.03117188 116.9609375 207.37109375 C117.22132813 206.50613281 117.48171875 205.64117188 117.75 204.75 C118.00523437 203.90308594 118.26046875 203.05617188 118.5234375 202.18359375 C118.80445313 201.23613281 119.08546875 200.28867187 119.375 199.3125 C119.7359375 198.301875 120.096875 197.29125 120.46875 196.25 C121.98671858 190.91673454 121.58476476 185.36840857 121.5 179.875 C121.48646484 178.2053418 121.48646484 178.2053418 121.47265625 176.50195312 C121.4492224 173.77190977 121.416414 171.0423199 121.375 168.3125 C121.18454102 168.88750244 120.99408203 169.46250488 120.79785156 170.05493164 C117.12089318 181.1259733 113.6412294 191.03069648 106.375 200.3125 C105.2303125 201.8903125 105.2303125 201.8903125 104.0625 203.5 C94.92391551 213.06363494 81.37225118 219.77829517 68.04296875 220.42578125 C66.15329461 220.43570949 64.26345207 220.38117098 62.375 220.3125 C63.2 219.343125 64.025 218.37375 64.875 217.375 C65.42542969 216.7253125 65.97585938 216.075625 66.54296875 215.40625 C67.73830194 214.04015493 68.9694379 212.70435389 70.23828125 211.40625 C91.12058974 189.64512693 99.26461709 155.89097718 99.75 126.6875 C99.77618408 125.72602051 99.80236816 124.76454102 99.8293457 123.77392578 C99.92343386 118.47002234 99.92343386 118.47002234 97.6171875 113.86328125 C96.87726563 113.35152344 96.13734375 112.83976562 95.375 112.3125 C94.68921875 111.78269531 94.0034375 111.25289063 93.296875 110.70703125 C92.58015625 110.18496094 91.8634375 109.66289062 91.125 109.125 C82.60619489 102.54736524 76.86279254 94.48197614 71.375 85.3125 C70.81425781 84.37921875 70.25351562 83.4459375 69.67578125 82.484375 C69.03189453 81.40929687 69.03189453 81.40929687 68.375 80.3125 C67.97947284 91.27739184 69.47440018 101.74602922 72.375 112.3125 C56.3900332 106.65410467 43.86239624 89.78812627 36.77539062 74.96728516 C35.29117663 71.75656314 33.82352855 68.53945918 32.375 65.3125 C27.81550575 82.55092515 23.94562823 99.65872902 21.375 117.3125 C7.31101085 112.89419251 -5.07680688 105.17643369 -12.37890625 91.9375 C-15.06827943 86.27211198 -17.19067483 80.4190329 -18.625 74.3125 C-21.97900211 85.1123868 -22.74681264 96.09314405 -23.625 107.3125 C-33.19917474 102.83136833 -38.1078695 91.75725543 -41.625 82.3125 C-43.98973364 74.62042304 -45.11495865 67.35145115 -44.625 59.3125 C-45.285 59.3125 -45.945 59.3125 -46.625 59.3125 C-47.01171875 60.37984375 -47.01171875 60.37984375 -47.40625 61.46875 C-53.34585172 75.32782068 -65.42305694 88.47534162 -75.625 99.3125 C-76.18445313 99.92480469 -76.74390625 100.53710938 -77.3203125 101.16796875 C-80.0049015 104.00170158 -82.24158932 106.10775677 -85.7265625 107.96875 C-91.91086602 111.45579459 -91.91086602 111.45579459 -95.22705078 117.49658203 C-96.05197669 124.12605795 -95.40347578 130.70718629 -94.625 137.3125 C-94.50995117 138.29250977 -94.39490234 139.27251953 -94.27636719 140.28222656 C-90.57701385 169.10276998 -79.4632886 196.35401749 -59.2421875 217.5546875 C-57.625 219.3125 -57.625 219.3125 -57.625 220.3125 C-71.90907564 221.02670378 -85.18412089 216.32853276 -96 206.9375 C-106.77167526 196.57879632 -111.93947539 184.6687726 -115.625 170.3125 C-116.23840613 188.06890366 -116.23840613 188.06890366 -112.625 205.3125 C-112.27945852 206.64272178 -111.94166914 207.97511092 -111.625 209.3125 C-122.39335881 203.92832059 -129.6418144 195.20589793 -133.8828125 183.984375 C-141.57721663 159.55598707 -130.44401781 134.44707006 -122.5871582 111.32006836 C-120.37231945 104.74310019 -118.43533753 98.13543835 -116.625 91.4375 C-110.76604022 70.20848922 -100.51533471 51.49858538 -85.625 35.3125 C-84.82320312 34.42820312 -84.02140625 33.54390625 -83.1953125 32.6328125 C-68.09651318 16.74194502 -48.81902907 7.2485219 -27.625 2.3125 C-26.84302246 2.12631104 -26.06104492 1.94012207 -25.25537109 1.74829102 C-16.87307273 -0.0224951 -8.523162 -0.04247732 0 0 Z " fill="#FBFAF8" transform="translate(227.625,388.6875)"/>
<path d="M0 0 C0.33 0 0.66 0 1 0 C1.350625 1.258125 1.70125 2.51625 2.0625 3.8125 C6.59782572 17.18751149 15.8139819 26.74151332 28.3125 32.9375 C32.17438918 34.76681593 36.02894982 36.41157993 40 38 C40 34.04 40 30.08 40 26 C41.0725 26.845625 42.145 27.69125 43.25 28.5625 C54.66829184 37.0412316 66.824525 42.96254641 81 45 C84.10250836 32.40843682 86.66350284 19.75494549 89 7 C91.33019647 9.28831717 93.33388724 11.64823793 95.3125 14.25 C98.41770108 18.2867614 101.65242454 22.16253545 105 26 C104.0821875 26.54527344 103.164375 27.09054687 102.21875 27.65234375 C94.77777251 32.18361729 88.0035449 36.65007225 83 44 C83 44.66 83 45.32 83 46 C86.465 45.505 86.465 45.505 90 45 C89.97905273 45.67466309 89.95810547 46.34932617 89.93652344 47.04443359 C89.85245414 50.15446567 89.80105556 53.26425759 89.75 56.375 C89.71648437 57.43589844 89.68296875 58.49679687 89.6484375 59.58984375 C89.55779841 66.9769299 90.85428906 72.35321158 94 79 C94.33 79.99 94.66 80.98 95 82 C98.63782632 83.21260877 101.17735999 83.39544552 105 83 C110.3732322 79.09219476 112.0001365 73.9378186 113.5703125 67.75390625 C114.13364425 64.14346183 114.14779571 60.58114973 114.125 56.9375 C114.12306641 56.19250244 114.12113281 55.44750488 114.11914062 54.67993164 C114.07075577 48.42148567 113.67151987 42.22355024 113 36 C124.00361343 35.41285067 124.00361343 35.41285067 129 39 C129.875 41.1875 129.875 41.1875 130 43 C130.928125 41.6078125 130.928125 41.6078125 131.875 40.1875 C133.25 38.125 134.625 36.0625 136 34 C135.68269476 30.36060068 135.68269476 30.36060068 135 27 C138.56247389 29.19038551 141.53837308 31.2229884 142.62597656 35.40966797 C142.80069025 38.28093572 142.76279612 41.06416964 142.625 43.9375 C142.59825195 44.96077393 142.57150391 45.98404785 142.54394531 47.03833008 C142.24061056 55.27438709 141.20378402 63.03978012 139 71 C138.7215625 72.01835938 138.443125 73.03671875 138.15625 74.0859375 C134.41033327 86.38933642 128.62639557 97.4355886 120 107 C119.11248047 108.02673828 119.11248047 108.02673828 118.20703125 109.07421875 C103.69450921 124.82448254 81.42956266 133.09348212 60.3828125 134.34765625 C37.4065105 135.10105888 14.88181933 128.54249249 -2.6875 113.3125 C-22.14865624 94.71939534 -30.69469808 68.37061599 -31.75 41.875 C-31.78336302 37.95089414 -31.68175974 34.91976145 -29.265625 31.66015625 C-27 29.9375 -27 29.9375 -24.75 28.71484375 C-17.03185846 23.90196856 -11.75094817 16.30309137 -6.5625 9 C-5.33740415 7.28968004 -4.10969421 5.58122836 -2.87890625 3.875 C-2.3485376 3.12992187 -1.81816895 2.38484375 -1.27172852 1.6171875 C-0.6422229 0.81667969 -0.6422229 0.81667969 0 0 Z " fill="#FBFAF8" transform="translate(174,475)"/>
<path d="M0 0 C10.23 0 20.46 0 31 0 C35.57476903 16.89076486 39.57460484 33.90455128 43.56834793 50.93936539 C45.07371077 57.3570702 46.58436678 63.77353301 48.09450722 70.19011497 C48.47131496 71.79129917 48.84802283 73.39250687 49.22463036 74.99373817 C51.64488895 85.2830275 54.08466489 95.56720944 56.55859375 105.84375 C56.82119995 106.93543991 57.08380615 108.02712982 57.35437012 109.15190125 C58.54881127 114.11388281 59.74747461 119.07479847 60.95166016 124.03442383 C61.36501026 125.74818518 61.77826568 127.46196937 62.19140625 129.17578125 C62.37803329 129.93785889 62.56466034 130.69993652 62.75694275 131.48510742 C63.45750948 134.40152537 64 136.98804507 64 140 C55.75 140 47.5 140 39 140 C37.71522845 136.14568534 36.59976147 132.59133683 35.7109375 128.671875 C35.49179687 127.70765625 35.27265625 126.7434375 35.046875 125.75 C34.82515625 124.76 34.6034375 123.77 34.375 122.75 C34.14554687 121.74453125 33.91609375 120.7390625 33.6796875 119.703125 C32 112.26450893 32 112.26450893 32 110 C31.30688721 110.16298584 30.61377441 110.32597168 29.8996582 110.49389648 C26.74082435 111.04523627 23.81146304 111.11285054 20.60546875 111.09765625 C19.40341797 111.09443359 18.20136719 111.09121094 16.96289062 111.08789062 C15.71701172 111.07951172 14.47113281 111.07113281 13.1875 111.0625 C11.92228516 111.05798828 10.65707031 111.05347656 9.35351562 111.04882812 C6.2356289 111.03706251 3.11783867 111.02062272 0 111 C-0.11972168 111.75893555 -0.23944336 112.51787109 -0.36279297 113.29980469 C-1.39406121 119.68308557 -2.58700377 125.97060711 -4.125 132.25 C-4.74375 134.8075 -5.3625 137.365 -6 140 C-14.58 140 -23.16 140 -32 140 C-29.75281265 126.51687587 -29.75281265 126.51687587 -28.63378906 122.03125 C-28.37748718 120.9894458 -28.1211853 119.9476416 -27.8571167 118.87426758 C-27.57942444 117.76075928 -27.30173218 116.64725098 -27.015625 115.5 C-26.38571727 112.93137861 -25.75715002 110.36247072 -25.13085938 107.79296875 C-24.96287716 107.10474533 -24.79489494 106.41652191 -24.62182236 105.70744324 C-22.36316919 96.42493421 -20.20856633 87.11796483 -18.046875 77.8125 C-17.72465218 76.42633987 -17.72465218 76.42633987 -17.3959198 75.01217651 C-16.0701807 69.30849653 -14.74626825 63.60439403 -13.42297363 57.90014648 C-12.29336738 53.03216438 -11.16221181 48.16454231 -10.03125 43.296875 C-8.37523046 36.16814188 -6.71965222 29.0393066 -5.06542969 21.91015625 C-4.90019806 21.19829163 -4.73496643 20.486427 -4.56472778 19.75299072 C-3.03756482 13.16993753 -1.51957519 6.58482584 0 0 Z " fill="#FBFAF8" transform="translate(425,436)"/>
<path d="M0 0 C21.45 0 42.9 0 65 0 C65 7.92 65 15.84 65 24 C52.46 24 39.92 24 27 24 C27 35.55 27 47.1 27 59 C38.88 59 50.76 59 63 59 C63 66.92 63 74.84 63 83 C51.12 83 39.24 83 27 83 C27 101.81 27 120.62 27 140 C18.09 140 9.18 140 0 140 C0 93.8 0 47.6 0 0 Z " fill="#E12914" transform="translate(700,436)"/>
<path d="M0 0 C8.94014448 5.29236768 13.67188459 11.25984042 16.85180664 21.10766602 C17.49671969 24.36914203 17.42334404 27.50480289 17.41015625 30.828125 C17.40765869 32.11750977 17.40516113 33.40689453 17.40258789 34.73535156 C17.39348389 36.36956055 17.38437988 38.00376953 17.375 39.6875 C17.354375 44.885 17.33375 50.0825 17.3125 55.4375 C2.7925 55.4375 -11.7275 55.4375 -26.6875 55.4375 C-26.93686185 69.0528501 -26.93686185 69.0528501 -20.6875 78.4375 C-17.63124616 78.99800987 -14.74653801 78.97187741 -11.6875 78.4375 C-8.25968686 75.36125744 -7.43581219 72.80828048 -5.6875 68.4375 C1.5725 68.4375 8.8325 68.4375 16.3125 68.4375 C16.3125 77.82731117 15.02091173 84.7571854 8.40234375 91.68359375 C0.54368782 98.2789891 -9.3159679 101.02386239 -19.43359375 100.80859375 C-29.50241184 99.66028917 -38.10732978 95.11436525 -44.6875 87.4375 C-50.24163585 79.26498582 -51.00155911 70.11460427 -51.0234375 60.5078125 C-51.0300943 59.47743866 -51.0367511 58.44706482 -51.04360962 57.38546753 C-51.05369088 55.21549248 -51.05842805 53.04548672 -51.05810547 50.87548828 C-51.06247781 47.57922672 -51.09884471 44.28430643 -51.13671875 40.98828125 C-51.14258824 38.8697962 -51.14655675 36.75130485 -51.1484375 34.6328125 C-51.16280853 33.65958038 -51.17717957 32.68634827 -51.19198608 31.68362427 C-51.12179217 21.02414493 -47.49666791 13.32058078 -40.203125 5.640625 C-29.59415602 -3.65045963 -12.78974359 -6.10272029 0 0 Z " fill="#FAF9F7" transform="translate(667.6875,477.5625)"/>
<path d="M0 0 C5.63731274 4.52414773 8.5261933 9.94604622 10 17 C10.41254806 23.12863802 10.34990857 29.23939967 10.29296875 35.37890625 C10.28736547 37.15965923 10.28309883 38.94041687 10.28010559 40.72117615 C10.26871443 45.38189725 10.23929729 50.04233274 10.20599365 54.70294189 C10.17516852 59.46923968 10.16157379 64.23558414 10.14648438 69.00195312 C10.11442143 78.33478035 10.06170104 87.66732161 10 97 C2.41 97 -5.18 97 -13 97 C-13.01458252 94.8753833 -13.02916504 92.7507666 -13.04418945 90.56176758 C-13.09455883 83.53680212 -13.161158 76.51205777 -13.23571491 69.48730946 C-13.28041517 65.22878225 -13.31967195 60.97035063 -13.34643555 56.71166992 C-13.37247213 52.60068424 -13.41287676 48.49006648 -13.46318626 44.3793087 C-13.47985264 42.812106 -13.49136836 41.24483967 -13.49761391 39.67756081 C-13.50725781 37.4797179 -13.53531854 35.28281571 -13.56762695 33.08520508 C-13.58428154 31.20989861 -13.58428154 31.20989861 -13.60127258 29.29670715 C-14.03095592 25.7440542 -14.88448562 23.85295399 -17 21 C-20.21522137 18.67173625 -23.10830425 18.60288819 -27 19 C-29.75262381 19.95500828 -29.75262381 19.95500828 -32 22 C-32.52112282 24.61529195 -32.69216834 26.60400318 -32.65942383 29.2253418 C-32.67514938 30.3232756 -32.67514938 30.3232756 -32.69119263 31.44338989 C-32.71999127 33.86242819 -32.71364617 36.28003942 -32.70703125 38.69921875 C-32.72014351 40.37646788 -32.73544628 42.0537012 -32.75285339 43.73091125 C-32.79277215 48.14507341 -32.8028982 52.55882315 -32.80688477 56.97314453 C-32.81620335 61.47766689 -32.85360878 65.98194561 -32.88867188 70.48632812 C-32.95331795 79.32426453 -32.9839048 88.16184166 -33 97 C-41.25 97 -49.5 97 -58 97 C-58 64 -58 31 -58 -3 C-51.73 -3 -45.46 -3 -39 -3 C-36 3 -36 3 -36 5 C-35.3709375 4.51789063 -34.741875 4.03578125 -34.09375 3.5390625 C-23.08990502 -4.58124479 -12.55218865 -6.55298084 0 0 Z " fill="#FAFAF7" transform="translate(555,479)"/>
<path d="M0 0 C7.92 0 15.84 0 24 0 C27.96 8.91 31.92 17.82 36 27 C39.11616911 20.36162319 39.11616911 20.36162319 42.22167969 13.71826172 C43.05451662 11.9566998 43.90899551 10.20527139 44.78027344 8.46240234 C45.77476537 6.45470706 46.68204825 4.40400709 47.5625 2.34375 C51.09631095 -1.05414514 54.11839956 -0.6134476 58.8828125 -0.52734375 C59.99398437 -0.47707031 61.10515625 -0.42679687 62.25 -0.375 C63.93996094 -0.33439453 63.93996094 -0.33439453 65.6640625 -0.29296875 C68.44464237 -0.22227604 71.22135359 -0.1236504 74 0 C72.82356343 2.58879809 71.63316363 5.17007569 70.4375 7.75 C69.87119873 9.00103516 69.87119873 9.00103516 69.29345703 10.27734375 C66.7739643 15.69762613 63.94865926 20.78507106 60.74609375 25.828125 C53.23270103 36.9857652 53.23270103 36.9857652 49.97070312 49.60791016 C51.18330731 54.7658242 54.17000919 58.83693741 57.16455078 63.12695312 C60.6619063 68.60139842 63.28060779 74.5493675 66.04534912 80.4180603 C67.05334769 82.54320436 68.08158141 84.65722748 69.11767578 86.76879883 C69.60229027 87.76033966 69.60229027 87.76033966 70.09669495 88.77191162 C70.98607986 90.59102718 71.87596005 92.40990057 72.76586914 94.22875977 C74 97 74 97 74 99 C66.08 99 58.16 99 50 99 C49.07316406 96.84597656 48.14632812 94.69195313 47.19140625 92.47265625 C46.29508774 90.39403932 45.39795066 88.31577753 44.50073242 86.23754883 C43.87617604 84.78967665 43.25247534 83.34143505 42.62963867 81.89282227 C41.7357941 79.81429587 40.83891088 77.73710438 39.94140625 75.66015625 C39.6622084 75.00910416 39.38301056 74.35805206 39.09535217 73.68727112 C37.90229864 70.62092344 37.90229864 70.62092344 36 68 C35.63032104 68.87567627 35.63032104 68.87567627 35.25317383 69.76904297 C34.10962701 72.47245705 32.96108829 75.17372422 31.8125 77.875 C31.42513672 78.7928125 31.03777344 79.710625 30.63867188 80.65625 C30.24873047 81.57148437 29.85878906 82.48671875 29.45703125 83.4296875 C29.10616455 84.25710449 28.75529785 85.08452148 28.39379883 85.93701172 C26.38588051 90.3495784 24.16806276 94.66387448 22 99 C14.08 99 6.16 99 -2 99 C-0.6742561 95.68564024 0.63698072 92.60661202 2.23071289 89.44091797 C2.66779068 88.57006561 3.10486847 87.69921326 3.55519104 86.80197144 C4.02295456 85.87474274 4.49071808 84.94751404 4.97265625 83.9921875 C5.45576767 83.02975128 5.93887909 82.06731506 6.43663025 81.07571411 C7.9766654 78.00783952 9.51926857 74.94126789 11.0625 71.875 C13.09733342 67.83187035 15.12955442 63.78744374 17.16015625 59.7421875 C17.629944 58.81091034 18.09973175 57.87963318 18.58375549 56.9201355 C19.01768112 56.05558746 19.45160675 55.19103943 19.89868164 54.30029297 C20.28125626 53.54038055 20.66383087 52.78046814 21.05799866 51.99752808 C22.10840478 49.87249659 22.10840478 49.87249659 23 47 C21.86977825 44.39564995 20.67699857 41.96595985 19.3359375 39.47265625 C18.94685211 38.7284996 18.55776672 37.98434296 18.15689087 37.21763611 C16.90566437 34.82750788 15.6412909 32.44467666 14.375 30.0625 C12.73045641 26.95261357 11.09231219 23.839471 9.4609375 20.72265625 C8.87104034 19.59653427 8.87104034 19.59653427 8.26922607 18.44766235 C5.14370027 12.41756992 2.48597117 6.32654296 0 0 Z " fill="#E62A15" transform="translate(858,477)"/>
<path d="M0 0 C7.92 0 15.84 0 24 0 C24 46.86 24 93.72 24 142 C16.08 142 8.16 142 0 142 C0 95.14 0 48.28 0 0 Z " fill="#E72B15" transform="translate(779,434)"/>
<path d="M0 0 C7.92 0 15.84 0 24 0 C24 32.67 24 65.34 24 99 C16.08 99 8.16 99 0 99 C0 66.33 0 33.66 0 0 Z " fill="#E52A15" transform="translate(820,477)"/>
<path d="M0 0 C7.92 0 15.84 0 24 0 C24 32.34 24 64.68 24 98 C16.08 98 8.16 98 0 98 C0 65.66 0 33.32 0 0 Z " fill="#F7F7F4" transform="translate(579,478)"/>
<path d="M0 0 C6.22366759 5.99824634 6.1073038 18.76360947 6.33255005 26.99932861 C6.37413692 30.22476851 6.36938441 33.44783565 6.33618164 36.67333984 C6.31244962 39.1302152 6.31567008 41.58600631 6.32226562 44.04296875 C6.30405589 53.54416354 5.66687187 62.62468058 4 72 C1.17515909 69.21616249 -1.32811765 66.39244238 -3.75 63.25 C-17.5827631 45.89570929 -35.57115035 33.06552169 -57 27 C-57 26.34 -57 25.68 -57 25 C-42.23968497 13.04515581 -19.62186346 -1.58240834 0 0 Z " fill="#E72B15" transform="translate(339,361)"/>
<path d="M0 0 C15.05005946 3.26248566 28.49336536 10.58010601 41 19.375 C41.59377441 19.79160889 42.18754883 20.20821777 42.79931641 20.63745117 C45.58737007 22.67717628 46.88146796 23.64440387 48 27 C46.90042969 27.42410156 45.80085938 27.84820312 44.66796875 28.28515625 C22.48104599 37.00899391 4.43639217 51.01057652 -8.625 71.19921875 C-9.07875 71.79347656 -9.5325 72.38773437 -10 73 C-10.66 73 -11.32 73 -12 73 C-12.98836538 70.03490387 -13.132141 68.07846645 -13.14526367 64.98461914 C-13.15164352 63.96247818 -13.15802338 62.94033722 -13.16459656 61.88722229 C-13.16570938 60.7810405 -13.1668222 59.6748587 -13.16796875 58.53515625 C-13.17129715 57.39147079 -13.17462555 56.24778534 -13.17805481 55.06944275 C-13.18312372 52.64257204 -13.18546315 50.21569435 -13.18530273 47.78881836 C-13.18747291 44.10844071 -13.20558387 40.42837082 -13.22460938 36.74804688 C-13.22754671 34.38541769 -13.22952923 32.02278708 -13.23046875 29.66015625 C-13.23765427 28.57219254 -13.24483978 27.48422882 -13.25224304 26.36329651 C-13.22808828 18.11569072 -13.1771219 9.19297552 -9.3125 1.75 C-6.07734454 -0.69822575 -4.0122343 -0.2422946 0 0 Z " fill="#E72B15" transform="translate(128,361)"/>
<path d="M0 0 C1.38399548 0.98751279 2.76022569 1.98608872 4.125 3 C5.48625 3.9590625 5.48625 3.9590625 6.875 4.9375 C9.8480315 7.66277888 11.87376967 10.65531494 14.125 14 C13.795 14.66 13.465 15.32 13.125 16 C10.815 15.67 8.505 15.34 6.125 15 C6.3725 16.6396875 6.3725 16.6396875 6.625 18.3125 C7.86186651 28.64397318 7.92952759 39.50925892 2.0625 48.5625 C-1.42356614 52.94819611 -1.42356614 52.94819611 -5.6875 53.4375 C-8.92756291 53.32617777 -9.82646745 53.03309037 -12.625 51.125 C-20.9057001 39.62402764 -21.12950846 25.81100757 -18.9375 12.25 C-18.05491632 7.35983264 -18.05491632 7.35983264 -16.875 5 C-23.12607435 5.42954941 -28.91704521 6.01401507 -34.875 8 C-34.545 10.31 -34.215 12.62 -33.875 15 C-34.8911846 13.67896002 -35.88633494 12.34175973 -36.875 11 C-37.6175 10.01 -38.36 9.02 -39.125 8 C-40.875 5 -40.875 5 -40.7109375 3.0078125 C-39.0879288 -0.89044205 -35.37370497 -2.86434526 -31.875 -5 C-20.53697595 -9.53520962 -9.91688367 -6.4904521 0 0 Z " fill="#0E0D0C" transform="translate(190.875,506)"/>
<path d="M0 0 C2.27723181 2.27723181 2.47547247 3.28693732 3.14501953 6.37036133 C3.34507599 7.2750264 3.54513245 8.17969147 3.75125122 9.11177063 C3.95966644 10.09195663 4.16808167 11.07214264 4.3828125 12.08203125 C4.60194305 13.08836105 4.82107361 14.09469086 5.04684448 15.1315155 C5.50926909 17.26341453 5.96799987 19.39611759 6.42333984 21.52954102 C7.12034435 24.79071695 7.83071663 28.04876493 8.54296875 31.30664062 C8.99038613 33.37743088 9.43702626 35.44838924 9.8828125 37.51953125 C10.09527618 38.49364456 10.30773987 39.46775787 10.52664185 40.47138977 C10.81727005 41.8425721 10.81727005 41.8425721 11.11376953 43.24145508 C11.28538605 44.04150467 11.45700256 44.84155426 11.63381958 45.66584778 C12 48 12 48 12 53 C4.41 53 -3.18 53 -11 53 C-9.875 44 -9.875 44 -8.96850586 39.9609375 C-8.66830788 38.61044312 -8.66830788 38.61044312 -8.36204529 37.23266602 C-8.04168053 35.81812134 -8.04168053 35.81812134 -7.71484375 34.375 C-7.49429825 33.38749756 -7.27375275 32.39999512 -7.04652405 31.38256836 C-6.34701708 28.25424918 -5.64234236 25.1271209 -4.9375 22 C-4.45994357 19.86856638 -3.98272652 17.73705669 -3.50585938 15.60546875 C-2.34116428 10.40275938 -1.17223351 5.20101576 0 0 Z " fill="#0E0D0C" transform="translate(440,472)"/>
<path d="M0 0 C2.8902109 2.29516748 4.81163853 4.54425084 6.15625 7.953125 C6.39171009 12.34053132 5.69124939 16.00658762 3.53125 19.828125 C0.10538186 22.89337544 -3.20602185 24.82775769 -7.8984375 25.05078125 C-12.66446128 24.68208884 -15.54409145 23.34983233 -18.84375 19.953125 C-21.54020052 15.48444904 -21.62923321 11.03472046 -20.84375 5.953125 C-19.17481993 2.57388642 -16.76738706 0.54322646 -13.59375 -1.484375 C-8.92375505 -2.43960124 -4.23156999 -2.4026711 0 0 Z " fill="#F8F8F5" transform="translate(598.84375,439.046875)"/>
<path d="M0 0 C3.62070205 2.65814323 5.39317841 4.91792568 6.09765625 9.40234375 C6.28346491 14.4191777 4.67670842 17.73355007 1.59765625 21.65234375 C-2.30605914 24.65520174 -6.17525299 25.49647731 -11.02734375 24.90234375 C-15.29365011 22.59853832 -18.5890343 20.12249472 -21.02734375 15.90234375 C-21.87299279 11.24264493 -21.45484423 7.82574479 -19.46484375 3.52734375 C-13.97276418 -2.38720348 -7.06233923 -3.8237328 0 0 Z " fill="#E62A15" transform="translate(839.02734375,439.09765625)"/>
<path d="M0 0 C4.07351123 3.09941072 5.05580242 5.13950605 7 10 C7 13.63 7 17.26 7 21 C-0.26 21 -7.52 21 -15 21 C-15.47142857 6.85714286 -15.47142857 6.85714286 -10.3125 1.125 C-6.88529974 -0.54228661 -3.67900622 -0.78261166 0 0 Z " fill="#0C0A0A" transform="translate(656,495)"/>
<path d="M0 0 C7.59 0 15.18 0 23 0 C23 32.01 23 64.02 23 97 C22.67 97 22.34 97 22 97 C22 65.65 22 34.3 22 2 C15.4 2 8.8 2 2 2 C2 26.42 2 50.84 2 76 C1.67 76 1.34 76 1 76 C-0.2854532 50.67383705 -0.09365946 25.35049449 0 0 Z " fill="#F92F18" transform="translate(820,477)"/>
<path d="M0 0 C0.33 0 0.66 0 1 0 C1 32.67 1 65.34 1 99 C-6.92 99 -14.84 99 -23 99 C-23 82.17 -23 65.34 -23 48 C-22.67 48 -22.34 48 -22 48 C-21.32924486 64.34608862 -20.8831399 80.63958542 -21 97 C-14.07 97 -7.14 97 0 97 C0 64.99 0 32.98 0 0 Z " fill="#C72714" transform="translate(843,477)"/>
<path d="M0 0 C1.79244141 0.00676758 1.79244141 0.00676758 3.62109375 0.01367188 C6.53908455 0.02534384 9.45704919 0.04327485 12.375 0.0625 C12.375 7.6525 12.375 15.2425 12.375 23.0625 C0.495 23.0625 -11.385 23.0625 -23.625 23.0625 C-23.625 22.7325 -23.625 22.4025 -23.625 22.0625 C-12.405 22.0625 -1.185 22.0625 10.375 22.0625 C10.375 15.4625 10.375 8.8625 10.375 2.0625 C-0.845 2.0625 -12.065 2.0625 -23.625 2.0625 C-23.625 1.7325 -23.625 1.4025 -23.625 1.0625 C-15.73349953 0.06224837 -7.94697932 -0.05758681 0 0 Z " fill="#EC2E16" transform="translate(750.625,494.9375)"/>
<path d="M0 0 C0.66 0 1.32 0 2 0 C2 1.32 2 2.64 2 4 C7.94 4.33 13.88 4.66 20 5 C20 4.34 20 3.68 20 3 C20.66 3 21.32 3 22 3 C22 4.65 22 6.3 22 8 C14.41 8 6.82 8 -1 8 C-0.67 5.36 -0.34 2.72 0 0 Z " fill="#252423" transform="translate(430,517)"/>
<path d="M0 0 C0.33 0 0.66 0 1 0 C1.05796132 4.10410755 1.09358313 8.20811016 1.125 12.3125 C1.14175781 13.47974609 1.15851563 14.64699219 1.17578125 15.84960938 C1.18222656 16.96787109 1.18867188 18.08613281 1.1953125 19.23828125 C1.20578613 20.26993408 1.21625977 21.30158691 1.22705078 22.36450195 C1 25 1 25 -1 28 C-2.45214801 23.01851669 -2.18420386 18.02357224 -2.1875 12.875 C-2.19974609 11.86050781 -2.21199219 10.84601562 -2.22460938 9.80078125 C-2.22654297 8.83269531 -2.22847656 7.86460937 -2.23046875 6.8671875 C-2.23457764 5.98144043 -2.23868652 5.09569336 -2.24291992 4.18310547 C-2 2 -2 2 0 0 Z " fill="#181716" transform="translate(134,502)"/>
<path d="M0 0 C1.34882814 2.69765628 0.80338265 4.15164334 0 7 C-2.81824192 8.40912096 -5.17251282 8.11183553 -8.3203125 8.09765625 C-9.57714844 8.09443359 -10.83398438 8.09121094 -12.12890625 8.08789062 C-13.44761719 8.07951172 -14.76632812 8.07113281 -16.125 8.0625 C-17.46484211 8.05748489 -18.804686 8.05292201 -20.14453125 8.04882812 C-23.42973206 8.03701086 -26.71484397 8.02053617 -30 8 C-29.67 6.35 -29.34 4.7 -29 3 C-28.67 3.99 -28.34 4.98 -28 6 C-19.42 6 -10.84 6 -2 6 C-1.67 4.35 -1.34 2.7 -1 1 C-0.67 0.67 -0.34 0.34 0 0 Z " fill="#030303" transform="translate(421,570)"/>
<path d="M0 0 C2.23310663 3.34965995 2.25646703 4.4876394 2.265625 8.40234375 C2.26820313 9.45744141 2.27078125 10.51253906 2.2734375 11.59960938 C2.26570313 12.70111328 2.25796875 13.80261719 2.25 14.9375 C2.25773437 16.03513672 2.26546875 17.13277344 2.2734375 18.26367188 C2.27085937 19.32005859 2.26828125 20.37644531 2.265625 21.46484375 C2.26336914 22.430271 2.26111328 23.39569824 2.25878906 24.39038086 C1.99377831 27.06273932 1.3617166 28.70962513 0 31 C-1.17571451 27.32589215 -1.07366746 23.83070817 -1 20 C-0.67 20 -0.34 20 0 20 C0 17.69 0 15.38 0 13 C-0.66 13 -1.32 13 -2 13 C-2.33 14.32 -2.66 15.64 -3 17 C-4.6168484 13.76630321 -3.00851816 10.69371743 -2.0625 7.375 C-1.76956055 6.31539062 -1.76956055 6.31539062 -1.47070312 5.234375 C-0.98685508 3.48780156 -0.49424877 1.74365876 0 0 Z " fill="#181716" transform="translate(348,554)"/>
<path d="M0 0 C0.33 0 0.66 0 1 0 C1.26554687 1.02480469 1.53109375 2.04960938 1.8046875 3.10546875 C2.16129028 4.46618989 2.51807051 5.82686453 2.875 7.1875 C3.04902344 7.86103516 3.22304687 8.53457031 3.40234375 9.22851562 C4.37869801 12.9350457 5.4822544 16.47910367 7 20 C6.071875 19.4740625 6.071875 19.4740625 5.125 18.9375 C4.42375 18.628125 3.7225 18.31875 3 18 C2.34 18.33 1.68 18.66 1 19 C1.33 17.68 1.66 16.36 2 15 C1.34 15 0.68 15 0 15 C-1.37252731 12.25494537 -1.13229255 9.99672588 -1.125 6.9375 C-1.12757812 5.85339844 -1.13015625 4.76929688 -1.1328125 3.65234375 C-1 1 -1 1 0 0 Z " fill="#1F1E1D" transform="translate(112,558)"/>
<path d="M0 0 C0.33 0 0.66 0 1 0 C2.19898754 4.77645442 2.2556719 9.48020597 2.3125 14.375 C2.34150391 15.2 2.37050781 16.025 2.40039062 16.875 C2.46127923 22.77651141 1.33353277 26.12133863 -2 31 C-3 29 -3 29 -2.1015625 26.08984375 C-0.53193709 21.00241081 -0.54010862 15.84941556 -0.375 10.5625 C-0.33632813 9.54478516 -0.29765625 8.52707031 -0.2578125 7.47851562 C-0.16419128 4.98585064 -0.07846007 2.4931805 0 0 Z " fill="#1D1C1B" transform="translate(368,543)"/>
<path d="M0 0 C7.26 0 14.52 0 22 0 C22 0.66 22 1.32 22 2 C15.73 2 9.46 2 3 2 C3.33 2.99 3.66 3.98 4 5 C3.34 5 2.68 5 2 5 C1.34 3.35 0.68 1.7 0 0 Z " fill="#F42F17" transform="translate(858,477)"/>
<path d="M0 0 C0.33 0 0.66 0 1 0 C1.08720919 3.58317958 1.14046112 7.16608567 1.1875 10.75 C1.22520508 12.27367187 1.22520508 12.27367187 1.26367188 13.828125 C1.27333984 14.8078125 1.28300781 15.7875 1.29296875 16.796875 C1.3086792 17.69760742 1.32438965 18.59833984 1.34057617 19.52636719 C0.93761772 22.45308763 -0.0655403 23.81341349 -2 26 C-2.02698189 24.37509046 -2.04638757 22.75005367 -2.0625 21.125 C-2.07410156 20.22007812 -2.08570313 19.31515625 -2.09765625 18.3828125 C-2 16 -2 16 -1 14 C-0.95483567 12.56320968 -0.96135851 11.12448054 -1 9.6875 C-1.043568 6.31098014 -0.84918868 3.29060612 0 0 Z " fill="#121111" transform="translate(327,505)"/>
<path d="M0 0 C5.28663545 2.15381444 8.77870367 6.42236838 12 11 C11.67 11.66 11.34 12.32 11 13 C8.36 12.34 5.72 11.68 3 11 C3 10.34 3 9.68 3 9 C4.32 9 5.64 9 7 9 C6.4946875 8.43410156 5.989375 7.86820313 5.46875 7.28515625 C4.8190625 6.55167969 4.169375 5.81820312 3.5 5.0625 C2.8503125 4.33160156 2.200625 3.60070312 1.53125 2.84765625 C0 1 0 1 0 0 Z " fill="#151413" transform="translate(193,509)"/>
<path d="M0 0 C1.125 1.6875 1.125 1.6875 2 4 C1.25 6.1875 1.25 6.1875 0 9 C-0.75307208 11.98216543 -1.38296231 14.98701807 -2 18 C-2.99 18 -3.98 18 -5 18 C-4.35852041 15.18644068 -3.71204485 12.37419761 -3.0625 9.5625 C-2.88009766 8.76005859 -2.69769531 7.95761719 -2.50976562 7.13085938 C-1.11328125 1.11328125 -1.11328125 1.11328125 0 0 Z " fill="#131312" transform="translate(260,453)"/>
<path d="M0 0 C0.66 0.33 1.32 0.66 2 1 C1.68917128 2.75029762 1.37626821 4.50022694 1.0625 6.25 C0.88847656 7.22453125 0.71445312 8.1990625 0.53515625 9.203125 C0.35855469 10.12609375 0.18195313 11.0490625 0 12 C-0.12503906 12.75796875 -0.25007813 13.5159375 -0.37890625 14.296875 C-0.58386719 14.85890625 -0.78882813 15.4209375 -1 16 C-1.99 16.33 -2.98 16.66 -4 17 C-3.52555245 14.35323911 -3.04568672 11.70766636 -2.5625 9.0625 C-2.42779297 8.30775391 -2.29308594 7.55300781 -2.15429688 6.77539062 C-1.11328125 1.11328125 -1.11328125 1.11328125 0 0 Z " fill="#151413" transform="translate(425,549)"/>
<path d="M0 0 C2.39763185 2.39763185 2.34280586 3.33273498 2.625 6.625 C2.69976562 7.44226563 2.77453125 8.25953125 2.8515625 9.1015625 C2.92503906 10.04128906 2.92503906 10.04128906 3 11 C2.01 11.33 1.02 11.66 0 12 C0 12.66 0 13.32 0 14 C-0.99 14.33 -1.98 14.66 -3 15 C-2.01 10.05 -1.02 5.1 0 0 Z " fill="#161514" transform="translate(440,472)"/>
<path d="M0 0 C0.33 0 0.66 0 1 0 C1.19573608 1.43640171 1.38127816 2.87419504 1.5625 4.3125 C1.66691406 5.11300781 1.77132812 5.91351563 1.87890625 6.73828125 C2 9 2 9 1 12 C-0.32 12 -1.64 12 -3 12 C-2.01 8.04 -1.02 4.08 0 0 Z " fill="#141312" transform="translate(209,461)"/>
<path d="M0 0 C2.97 0.495 2.97 0.495 6 1 C6 1.66 6 2.32 6 3 C7.65 3 9.3 3 11 3 C11.33 2.34 11.66 1.68 12 1 C12.33 2.32 12.66 3.64 13 5 C11.3954444 4.85851011 9.79136233 4.71164314 8.1875 4.5625 C7.29417969 4.48128906 6.40085938 4.40007813 5.48046875 4.31640625 C3 4 3 4 0 3 C0 2.01 0 1.02 0 0 Z " fill="#141312" transform="translate(242,515)"/>
<path d="M0 0 C0.66 0 1.32 0 2 0 C1.34 4.29 0.68 8.58 0 13 C-0.66 13 -1.32 13 -2 13 C-2.16682272 8.07872966 -2.24828052 4.49656104 0 0 Z " fill="#1F1D1D" transform="translate(260,490)"/>
<path d="M0 0 C-1.125 1.5625 -1.125 1.5625 -3 3 C-6.1875 2.6875 -6.1875 2.6875 -9 2 C-9 2.66 -9 3.32 -9 4 C-10.32 3.67 -11.64 3.34 -13 3 C-12.34 3 -11.68 3 -11 3 C-11 2.34 -11 1.68 -11 1 C-9.5437328 0.63743142 -8.08488815 0.28520207 -6.625 -0.0625 C-5.40683594 -0.35833984 -5.40683594 -0.35833984 -4.1640625 -0.66015625 C-2 -1 -2 -1 0 0 Z " fill="#121111" transform="translate(309,607)"/>
<path d="M0 0 C0.86625 0.4640625 0.86625 0.4640625 1.75 0.9375 C3.84294184 1.92583364 5.74535275 2.5168613 8 3 C8 3.99 8 4.98 8 6 C8.99 6.33 9.98 6.66 11 7 C10.67 7.66 10.34 8.32 10 9 C8.3278148 7.88321917 6.66237197 6.75633648 5 5.625 C3.6078125 4.68527344 3.6078125 4.68527344 2.1875 3.7265625 C1.465625 3.15679687 0.74375 2.58703125 0 2 C0 1.34 0 0.68 0 0 Z " fill="#161514" transform="translate(190,499)"/>
<path d="M0 0 C0.66 0.33 1.32 0.66 2 1 C1.34 1.66 0.68 2.32 0 3 C-0.99 2.67 -1.98 2.34 -3 2 C-2.01 1.34 -1.02 0.68 0 0 Z M-5 3 C-4.34 3.33 -3.68 3.66 -3 4 C-3.99 5.98 -4.98 7.96 -6 10 C-6.33 9.34 -6.66 8.68 -7 8 C-7.66 7.67 -8.32 7.34 -9 7 C-7.68 5.68 -6.36 4.36 -5 3 Z " fill="#141313" transform="translate(159,501)"/>
<path d="M0 0 C0.99 0 1.98 0 3 0 C3.99 3.3 4.98 6.6 6 10 C5.34 10 4.68 10 4 10 C3.32845067 8.71086513 2.66291141 7.41859796 2 6.125 C1.62875 5.40570312 1.2575 4.68640625 0.875 3.9453125 C0 2 0 2 0 0 Z " fill="#141412" transform="translate(144,570)"/>
<path d="M0 0 C1.96301592 3.50538557 2.95902388 7.13351728 4 11 C2.35 10.01 0.7 9.02 -1 8 C-0.67 7.34 -0.34 6.68 0 6 C-0.165 5.34 -0.33 4.68 -0.5 4 C-1 2 -1 2 0 0 Z " fill="#E7E6E6" transform="translate(112,587)"/>
<path d="M0 0 C2.97 0 5.94 0 9 0 C9 0.99 9 1.98 9 3 C6.03 2.67 3.06 2.34 0 2 C0 1.34 0 0.68 0 0 Z " fill="#191817" transform="translate(166,499)"/>
<path d="M0 0 C0.66 0.33 1.32 0.66 2 1 C0.87548273 3.9719385 -0.22293791 6.33440687 -2 9 C-2.66 8.67 -3.32 8.34 -4 8 C-1.125 1.125 -1.125 1.125 0 0 Z " fill="#E8E7E6" transform="translate(258,512)"/>
<path d="M0 0 C3.3 0 6.6 0 10 0 C9.01 0.33 8.02 0.66 7 1 C7 1.66 7 2.32 7 3 C5.68 3.33 4.36 3.66 3 4 C2.01 2.68 1.02 1.36 0 0 Z " fill="#E8E8E6" transform="translate(287,511)"/>
<path d="M0 0 C0.99 0 1.98 0 3 0 C3 2.64 3 5.28 3 8 C1.5 6.8125 1.5 6.8125 0 5 C-0.1875 2.3125 -0.1875 2.3125 0 0 Z " fill="#181717" transform="translate(660,505)"/>
<path d="M0 0 C0.33 0.66 0.66 1.32 1 2 C2.65 1.67 4.3 1.34 6 1 C5 3 5 3 3.15234375 3.6328125 C2.42144531 3.79523437 1.69054687 3.95765625 0.9375 4.125 C0.20402344 4.29257812 -0.52945312 4.46015625 -1.28515625 4.6328125 C-1.85105469 4.75398437 -2.41695312 4.87515625 -3 5 C-2.01 3.35 -1.02 1.7 0 0 Z " fill="#121010" transform="translate(258,517)"/>
<path d="M0 0 C1.65 1.65 3.3 3.3 5 5 C3.02 5.99 3.02 5.99 1 7 C0.67 4.69 0.34 2.38 0 0 Z " fill="#DDDCDB" transform="translate(309,502)"/>
<path d="M0 0 C0.66 0 1.32 0 2 0 C2.25 3.3125 2.25 3.3125 2 7 C0.68 7.99 -0.64 8.98 -2 10 C-1.34 6.7 -0.68 3.4 0 0 Z " fill="#DFDFDE" transform="translate(411,496)"/>
<path d="M0 0 C0.66 0 1.32 0 2 0 C2.33 2.97 2.66 5.94 3 9 C2.01 8.34 1.02 7.68 0 7 C-0.1875 3.375 -0.1875 3.375 0 0 Z " fill="#151413" transform="translate(443,488)"/>
<path d="M0 0 C0 0.66 0 1.32 0 2 C-2.31 3.32 -4.62 4.64 -7 6 C-6.67 4.35 -6.34 2.7 -6 1 C-3.92446352 0.4465236 -2.15634036 0 0 0 Z " fill="#ECECEB" transform="translate(351,592)"/>
<path d="M0 0 C0.33 0 0.66 0 1 0 C1 3.3 1 6.6 1 10 C0.67 9.34 0.34 8.68 0 8 C-0.66 8 -1.32 8 -2 8 C-1.125 1.125 -1.125 1.125 0 0 Z " fill="#141413" transform="translate(174,512)"/>
<path d="M0 0 C1.1875 1.6875 1.1875 1.6875 2 4 C0.625 6.75 0.625 6.75 -1 9 C-2.0326802 6.21176345 -2.04509293 5.1322726 -1.0625 2.25 C-0.711875 1.5075 -0.36125 0.765 0 0 Z " fill="#212020" transform="translate(260,453)"/>
<path d="M0 0 C1.25541557 3.76624671 0.37061958 5.37188934 -1 9 C-1.66 9 -2.32 9 -3 9 C-3 7.35 -3 5.7 -3 4 C-2.34 4 -1.68 4 -1 4 C-0.67 2.68 -0.34 1.36 0 0 Z " fill="#141413" transform="translate(104,501)"/>
</svg>
