<?xml version="1.0" encoding="UTF-8"?>
<!DOCTYPE svg PUBLIC "-//W3C//DTD SVG 1.1//EN" "http://www.w3.org/Graphics/SVG/1.1/DTD/svg11.dtd">
<svg xmlns="http://www.w3.org/2000/svg" version="1.1" width="500px" height="500px" style="shape-rendering:geometricPrecision; text-rendering:geometricPrecision; image-rendering:optimizeQuality; fill-rule:evenodd; clip-rule:evenodd" xmlns:xlink="http://www.w3.org/1999/xlink">
<g><path style="opacity:0.004" fill="#000000" d="M 486.5,1.5 C 487.833,2.16667 487.833,2.16667 486.5,1.5 Z"/></g>
<g><path style="opacity:0.004" fill="#000000" d="M 457.5,3.5 C 458.833,4.16667 458.833,4.16667 457.5,3.5 Z"/></g>
<g><path style="opacity:0.004" fill="#000000" d="M 287.5,19.5 C 288.833,20.1667 288.833,20.1667 287.5,19.5 Z"/></g>
<g><path style="opacity:0.004" fill="#000000" d="M 20.5,21.5 C 21.8333,22.1667 21.8333,22.1667 20.5,21.5 Z"/></g>
<g><path style="opacity:0.004" fill="#000000" d="M 432.5,28.5 C 433.833,29.1667 433.833,29.1667 432.5,28.5 Z"/></g>
<g><path style="opacity:0.004" fill="#000000" d="M 267.5,31.5 C 268.833,32.1667 268.833,32.1667 267.5,31.5 Z"/></g>
<g><path style="opacity:0.004" fill="#000000" d="M 325.5,39.5 C 326.833,40.1667 326.833,40.1667 325.5,39.5 Z"/></g>
<g><path style="opacity:0.004" fill="#000000" d="M 471.5,39.5 C 472.833,40.1667 472.833,40.1667 471.5,39.5 Z"/></g>
<g><path style="opacity:0.004" fill="#000000" d="M 365.5,51.5 C 366.833,52.1667 366.833,52.1667 365.5,51.5 Z"/></g>
<g><path style="opacity:0.004" fill="#000000" d="M 19.5,54.5 C 20.8333,55.1667 20.8333,55.1667 19.5,54.5 Z"/></g>
<g><path style="opacity:0.004" fill="#000000" d="M 388.5,60.5 C 389.833,61.1667 389.833,61.1667 388.5,60.5 Z"/></g>
<g><path style="opacity:0.004" fill="#000000" d="M 35.5,64.5 C 36.8333,65.1667 36.8333,65.1667 35.5,64.5 Z"/></g>
<g><path style="opacity:0.004" fill="#000000" d="M 5.5,75.5 C 6.83333,76.1667 6.83333,76.1667 5.5,75.5 Z"/></g>
<g><path style="opacity:0.004" fill="#000000" d="M 450.5,92.5 C 451.833,93.1667 451.833,93.1667 450.5,92.5 Z"/></g>
<g><path style="opacity:0.004" fill="#000000" d="M 339.5,105.5 C 340.833,106.167 340.833,106.167 339.5,105.5 Z"/></g>
<g><path style="opacity:0.004" fill="#000000" d="M 56.5,111.5 C 57.8333,112.167 57.8333,112.167 56.5,111.5 Z"/></g>
<g><path style="opacity:0.004" fill="#000000" d="M 452.5,114.5 C 453.833,115.167 453.833,115.167 452.5,114.5 Z"/></g>
<g><path style="opacity:0.004" fill="#000000" d="M 267.5,118.5 C 268.833,119.167 268.833,119.167 267.5,118.5 Z"/></g>
<g><path style="opacity:0.004" fill="#000000" d="M 457.5,120.5 C 458.833,121.167 458.833,121.167 457.5,120.5 Z"/></g>
<g><path style="opacity:0.004" fill="#000000" d="M 472.5,123.5 C 473.833,124.167 473.833,124.167 472.5,123.5 Z"/></g>
<g><path style="opacity:0.004" fill="#000000" d="M 80.5,125.5 C 81.8333,126.167 81.8333,126.167 80.5,125.5 Z"/></g>
<g><path style="opacity:0.004" fill="#000000" d="M 22.5,127.5 C 23.8333,128.167 23.8333,128.167 22.5,127.5 Z"/></g>
<g><path style="opacity:0.004" fill="#000000" d="M 253.5,135.5 C 254.833,136.167 254.833,136.167 253.5,135.5 Z"/></g>
<g><path style="opacity:0.004" fill="#000000" d="M 330.5,145.5 C 331.833,146.167 331.833,146.167 330.5,145.5 Z"/></g>
<g><path style="opacity:0.004" fill="#000000" d="M 16.5,146.5 C 17.8333,147.167 17.8333,147.167 16.5,146.5 Z"/></g>
<g><path style="opacity:0.004" fill="#000000" d="M 161.5,150.5 C 162.833,151.167 162.833,151.167 161.5,150.5 Z"/></g>
<g><path style="opacity:0.004" fill="#000000" d="M 40.5,160.5 C 41.8333,161.167 41.8333,161.167 40.5,160.5 Z"/></g>
<g><path style="opacity:0.004" fill="#000000" d="M 392.5,168.5 C 393.833,169.167 393.833,169.167 392.5,168.5 Z"/></g>
<g><path style="opacity:0.004" fill="#000000" d="M 73.5,169.5 C 74.8333,170.167 74.8333,170.167 73.5,169.5 Z"/></g>
<g><path style="opacity:0.004" fill="#000000" d="M 233.5,169.5 C 234.833,170.167 234.833,170.167 233.5,169.5 Z"/></g>
<g><path style="opacity:0.004" fill="#000000" d="M 491.5,169.5 C 492.833,170.167 492.833,170.167 491.5,169.5 Z"/></g>
<g><path style="opacity:0.004" fill="#000000" d="M 415.5,171.5 C 416.833,172.167 416.833,172.167 415.5,171.5 Z"/></g>
<g><path style="opacity:0.004" fill="#000000" d="M 423.5,175.5 C 424.833,176.167 424.833,176.167 423.5,175.5 Z"/></g>
<g><path style="opacity:0.004" fill="#000000" d="M 486.5,176.5 C 487.833,177.167 487.833,177.167 486.5,176.5 Z"/></g>
<g><path style="opacity:0.004" fill="#000000" d="M 160.5,179.5 C 161.833,180.167 161.833,180.167 160.5,179.5 Z"/></g>
<g><path style="opacity:0.004" fill="#000000" d="M 214.5,181.5 C 215.833,182.167 215.833,182.167 214.5,181.5 Z"/></g>
<g><path style="opacity:0.004" fill="#000000" d="M 442.5,182.5 C 443.833,183.167 443.833,183.167 442.5,182.5 Z"/></g>
<g><path style="opacity:0.517" fill="#700d0a" d="M 97.5,204.5 C 91.7101,202.53 85.7101,202.03 79.5,203C 78.6634,204.011 78.33,205.178 78.5,206.5C 78.5,206.833 78.5,207.167 78.5,207.5C 78.1667,207.5 77.8333,207.5 77.5,207.5C 77.2606,205.533 77.5939,203.699 78.5,202C 84.0829,201.809 89.5829,201.309 95,200.5C 96.4813,201.471 97.3146,202.804 97.5,204.5 Z"/></g>
<g><path style="opacity:0.508" fill="#750608" d="M 122.5,202.5 C 122.5,202.167 122.5,201.833 122.5,201.5C 127.944,200.892 132.944,201.558 137.5,203.5C 132.595,202.555 127.595,202.221 122.5,202.5 Z"/></g>
<g><path style="opacity:0.358" fill="#6c080c" d="M 401.5,203.5 C 396.595,202.555 391.595,202.221 386.5,202.5C 386.674,204.861 387.007,207.194 387.5,209.5C 385.733,207.208 384.733,204.542 384.5,201.5C 390.598,200.883 396.265,201.55 401.5,203.5 Z"/></g>
<g><path style="opacity:0.122" fill="#4b0304" d="M 419.5,202.5 C 424.975,201.511 430.642,201.178 436.5,201.5C 436.771,203.38 436.104,204.713 434.5,205.5C 434.5,204.5 434.5,203.5 434.5,202.5C 429.5,202.5 424.5,202.5 419.5,202.5 Z"/></g>
<g><path style="opacity:0.998" fill="#c41d1d" d="M 97.5,204.5 C 97.5,205.167 97.5,205.833 97.5,206.5C 97.5,209.167 97.5,211.833 97.5,214.5C 96.4385,210.947 95.4385,207.281 94.5,203.5C 89.8215,203.334 85.1548,203.501 80.5,204C 79.9341,204.995 79.2674,205.828 78.5,206.5C 78.33,205.178 78.6634,204.011 79.5,203C 85.7101,202.03 91.7101,202.53 97.5,204.5 Z"/></g>
<g><path style="opacity:0.884" fill="#b12b28" d="M 210.5,203.5 C 222.655,202.505 234.989,202.171 247.5,202.5C 247.5,203.167 247.5,203.833 247.5,204.5C 247.167,204.5 246.833,204.5 246.5,204.5C 235.012,203.505 223.345,203.172 211.5,203.5C 211.167,203.5 210.833,203.5 210.5,203.5 Z"/></g>
<g><path style="opacity:0.906" fill="#951e20" d="M 419.5,202.5 C 424.5,202.5 429.5,202.5 434.5,202.5C 434.5,203.5 434.5,204.5 434.5,205.5C 434.88,207.698 434.213,209.365 432.5,210.5C 433.219,208.236 433.552,205.903 433.5,203.5C 429.154,203.334 424.821,203.501 420.5,204C 419.922,205.417 418.922,206.25 417.5,206.5C 417.66,204.847 418.326,203.514 419.5,202.5 Z"/></g>
<g><path style="opacity:1" fill="#b41b1c" d="M 401.5,203.5 C 402.363,205.421 403.029,207.421 403.5,209.5C 401.821,208 400.488,206.167 399.5,204C 395.909,203.211 392.409,203.378 389,204.5C 388.333,206.5 388.333,208.5 389,210.5C 391.056,214.268 392.222,218.268 392.5,222.5C 390.061,218.597 388.395,214.263 387.5,209.5C 387.007,207.194 386.674,204.861 386.5,202.5C 391.595,202.221 396.595,202.555 401.5,203.5 Z"/></g>
<g><path style="opacity:1" fill="#dd1010" d="M 97.5,214.5 C 99.066,218.662 100.066,222.995 100.5,227.5C 100.665,230.518 100.498,233.518 100,236.5C 98.2539,241.483 96.5873,246.483 95,251.5C 93.3318,248.243 92.1651,244.243 91.5,239.5C 91.1667,239.5 90.8333,239.5 90.5,239.5C 90.6079,234.13 90.2745,228.797 89.5,223.5C 88.1667,223.5 86.8333,223.5 85.5,223.5C 84.7255,228.797 84.3921,234.13 84.5,239.5C 83.8333,239.5 83.1667,239.5 82.5,239.5C 81.6851,240.429 80.8518,241.429 80,242.5C 78.5382,240.012 77.5382,237.345 77,234.5C 76.5831,235.756 75.7498,236.423 74.5,236.5C 74.5,235.5 74.5,234.5 74.5,233.5C 75.7586,228.485 76.9252,223.485 78,218.5C 78.4986,214.848 78.6653,211.182 78.5,207.5C 78.5,207.167 78.5,206.833 78.5,206.5C 79.2674,205.828 79.9341,204.995 80.5,204C 85.1548,203.501 89.8215,203.334 94.5,203.5C 95.4385,207.281 96.4385,210.947 97.5,214.5 Z"/></g>
<g><path style="opacity:1" fill="#da100f" d="M 246.5,204.5 C 246.5,207.833 246.5,211.167 246.5,214.5C 238.648,214.175 230.982,214.508 223.5,215.5C 223.5,215.833 223.5,216.167 223.5,216.5C 223.5,223.167 223.5,229.833 223.5,236.5C 229.31,237.49 235.31,237.823 241.5,237.5C 241.793,241.437 241.46,245.27 240.5,249C 234.843,249.499 229.176,249.666 223.5,249.5C 222.833,257.01 222.167,264.677 221.5,272.5C 221.705,268.73 221.372,264.73 220.5,260.5C 219.416,259.335 218.583,258.002 218,256.5C 217.667,261.167 217.333,265.833 217,270.5C 216.114,265.53 215.448,260.53 215,255.5C 214.667,256.833 214.333,258.167 214,259.5C 213.667,259.167 213.333,258.833 213,258.5C 212.5,240.503 212.333,222.503 212.5,204.5C 223.833,204.5 235.167,204.5 246.5,204.5 Z"/></g>
<g><path style="opacity:1" fill="#da100f" d="M 296.5,204.5 C 296.5,207.833 296.5,211.167 296.5,214.5C 288.648,214.175 280.982,214.508 273.5,215.5C 273.5,215.833 273.5,216.167 273.5,216.5C 272.509,223.313 272.175,230.313 272.5,237.5C 278.509,237.334 284.509,237.501 290.5,238C 291.46,241.73 291.793,245.563 291.5,249.5C 285.399,250.128 279.399,250.795 273.5,251.5C 272.508,258.648 272.175,265.981 272.5,273.5C 270.215,273.295 267.882,272.962 265.5,272.5C 266.896,271.148 267.563,269.481 267.5,267.5C 266.177,263.653 265.177,259.653 264.5,255.5C 263.914,255.709 263.414,256.043 263,256.5C 262.323,239.83 261.99,223.163 262,206.5C 273.246,204.535 284.746,203.868 296.5,204.5 Z"/></g>
<g><path style="opacity:1" fill="#dd100e" d="M 166.5,279.5 C 165.325,279.719 164.325,279.386 163.5,278.5C 164.415,277.672 165.081,276.672 165.5,275.5C 164.312,273.356 164.312,271.189 165.5,269C 163.994,264.634 163.161,260.134 163,255.5C 162.667,255.167 162.333,254.833 162,254.5C 161.469,260.171 160.969,265.838 160.5,271.5C 159.5,271.5 158.5,271.5 157.5,271.5C 157.688,273.103 157.188,274.437 156,275.5C 155.502,272.518 155.335,269.518 155.5,266.5C 157.548,264.544 158.548,262.044 158.5,259C 157.664,256.51 156.998,254.01 156.5,251.5C 156.5,235.5 156.5,219.5 156.5,203.5C 159.833,203.5 163.167,203.5 166.5,203.5C 166.5,228.833 166.5,254.167 166.5,279.5 Z"/></g>
<g><path style="opacity:0.698" fill="#4d0808" d="M 137.5,203.5 C 138.738,205.214 139.405,207.214 139.5,209.5C 137.926,207.898 137.259,205.898 137.5,203.5 Z"/></g>
<g><path style="opacity:1" fill="#de100f" d="M 320.5,204.5 C 320.5,221.5 320.5,238.5 320.5,255.5C 319.833,261.346 319.167,267.346 318.5,273.5C 317.686,271.234 317.186,268.9 317,266.5C 316.395,268.481 315.395,268.815 314,267.5C 312.935,271.378 312.101,271.378 311.5,267.5C 310.534,246.52 310.2,225.52 310.5,204.5C 313.833,204.5 317.167,204.5 320.5,204.5 Z"/></g>
<g><path style="opacity:1" fill="#db100f" d="M 143.5,221.5 C 143.5,221.833 143.5,222.167 143.5,222.5C 144.06,224.801 144.56,227.134 145,229.5C 145.708,230.381 146.542,231.047 147.5,231.5C 147.5,232.167 147.5,232.833 147.5,233.5C 147.764,239.091 149.097,244.424 151.5,249.5C 152.183,249.863 152.85,250.196 153.5,250.5C 153.5,250.833 153.5,251.167 153.5,251.5C 153.238,252.978 153.571,254.311 154.5,255.5C 155.172,254.051 155.839,252.718 156.5,251.5C 156.998,254.01 157.664,256.51 158.5,259C 158.548,262.044 157.548,264.544 155.5,266.5C 154.053,267.622 153.053,269.122 152.5,271C 151.552,271.483 150.552,271.649 149.5,271.5C 150.644,267.64 151.311,263.64 151.5,259.5C 150.5,259.5 149.5,259.5 148.5,259.5C 148.286,261.144 148.62,262.644 149.5,264C 147.735,264.64 146.068,264.473 144.5,263.5C 143.935,261.58 142.935,259.913 141.5,258.5C 141.579,254.798 141.246,251.132 140.5,247.5C 139.012,245.014 138.012,242.347 137.5,239.5C 136.5,239.5 135.5,239.5 134.5,239.5C 134.5,255.5 134.5,271.5 134.5,287.5C 133.209,287.263 132.209,287.596 131.5,288.5C 128.833,288.5 126.167,288.5 123.5,288.5C 123.372,260.159 123.705,231.826 124.5,203.5C 128.24,203.241 131.906,203.574 135.5,204.5C 137.362,209.544 139.195,214.544 141,219.5C 141.708,220.381 142.542,221.047 143.5,221.5 Z"/></g>
<g><path style="opacity:0.145" fill="#500001" d="M 417.5,207.5 C 417.771,209.38 417.104,210.713 415.5,211.5C 415.66,209.847 416.326,208.514 417.5,207.5 Z"/></g>
<g><path style="opacity:0.973" fill="#991517" d="M 403.5,209.5 C 405.346,212.54 406.679,215.873 407.5,219.5C 404.582,216.972 403.248,213.639 403.5,209.5 Z"/></g>
<g><path style="opacity:1" fill="#d91312" d="M 432.5,210.5 C 432.5,210.833 432.5,211.167 432.5,211.5C 431.167,211.5 429.833,211.5 428.5,211.5C 427.167,218.167 425.833,224.833 424.5,231.5C 424.672,232.492 424.338,233.158 423.5,233.5C 421.787,234.635 421.12,236.302 421.5,238.5C 421.5,238.833 421.5,239.167 421.5,239.5C 419.824,240.183 419.157,241.517 419.5,243.5C 419.5,243.833 419.5,244.167 419.5,244.5C 417.156,246.718 416.823,249.385 418.5,252.5C 416.362,252.703 414.695,253.703 413.5,255.5C 412.911,253.627 413.578,251.96 415.5,250.5C 416.481,244.401 417.648,238.401 419,232.5C 419.741,231.359 420.575,231.359 421.5,232.5C 421.833,231.667 422.167,230.833 422.5,230C 420.886,227.237 419.219,224.403 417.5,221.5C 417,221.167 416.5,220.833 416,220.5C 414.989,221.056 414.156,221.722 413.5,222.5C 413.5,221.167 413.5,219.833 413.5,218.5C 415.213,217.365 415.88,215.698 415.5,213.5C 415.5,212.833 415.5,212.167 415.5,211.5C 417.104,210.713 417.771,209.38 417.5,207.5C 417.5,207.167 417.5,206.833 417.5,206.5C 418.922,206.25 419.922,205.417 420.5,204C 424.821,203.501 429.154,203.334 433.5,203.5C 433.552,205.903 433.219,208.236 432.5,210.5 Z"/></g>
<g><path style="opacity:1" fill="#c2191a" d="M 246.5,204.5 C 246.833,204.5 247.167,204.5 247.5,204.5C 247.5,208.167 247.5,211.833 247.5,215.5C 239.5,215.5 231.5,215.5 223.5,215.5C 230.982,214.508 238.648,214.175 246.5,214.5C 246.5,211.167 246.5,207.833 246.5,204.5 Z"/></g>
<g><path style="opacity:0.137" fill="#520607" d="M 77.5,209.5 C 77.5905,212.152 76.9238,214.485 75.5,216.5C 75.4095,213.848 76.0762,211.515 77.5,209.5 Z"/></g>
<g><path style="opacity:0.694" fill="#6b0204" d="M 247.5,202.5 C 234.989,202.171 222.655,202.505 210.5,203.5C 210.5,230.5 210.5,257.5 210.5,284.5C 222.833,284.5 235.167,284.5 247.5,284.5C 235.011,285.495 222.344,285.829 209.5,285.5C 209.5,257.5 209.5,229.5 209.5,201.5C 222.344,201.171 235.011,201.505 247.5,202.5 Z"/></g>
<g><path style="opacity:0.393" fill="#791318" d="M 247.5,202.5 C 248.486,206.97 248.819,211.637 248.5,216.5C 240.5,216.5 232.5,216.5 224.5,216.5C 224.167,216.5 223.833,216.5 223.5,216.5C 223.5,216.167 223.5,215.833 223.5,215.5C 231.5,215.5 239.5,215.5 247.5,215.5C 247.5,211.833 247.5,208.167 247.5,204.5C 247.5,203.833 247.5,203.167 247.5,202.5 Z"/></g>
<g><path style="opacity:0.298" fill="#711015" d="M 297.5,202.5 C 298.486,206.97 298.819,211.637 298.5,216.5C 290.5,216.5 282.5,216.5 274.5,216.5C 274.167,216.5 273.833,216.5 273.5,216.5C 273.5,216.167 273.5,215.833 273.5,215.5C 281.5,215.5 289.5,215.5 297.5,215.5C 297.5,211.167 297.5,206.833 297.5,202.5 Z"/></g>
<g><path style="opacity:0.51" fill="#741012" d="M 415.5,213.5 C 415.88,215.698 415.213,217.365 413.5,218.5C 413.12,216.302 413.787,214.635 415.5,213.5 Z"/></g>
<g><path style="opacity:0.106" fill="#400702" d="M 141.5,216.5 C 142.906,216.973 143.573,217.973 143.5,219.5C 142.094,219.027 141.427,218.027 141.5,216.5 Z"/></g>
<g><path style="opacity:0.039" fill="#4a0100" d="M 155.5,201.5 C 155.5,201.833 155.5,202.167 155.5,202.5C 154.833,218.833 154.167,235.167 153.5,251.5C 153.5,251.167 153.5,250.833 153.5,250.5C 152.25,247.994 151.584,245.327 151.5,242.5C 152.222,242.918 152.722,243.584 153,244.5C 152.847,229.798 153.68,215.465 155.5,201.5 Z"/></g>
<g><path style="opacity:1" fill="#b32c2a" d="M 358.5,202.5 C 359.167,202.5 359.833,202.5 360.5,202.5C 360.5,202.833 360.5,203.167 360.5,203.5C 359.502,231.328 359.169,259.328 359.5,287.5C 360.791,287.263 361.791,287.596 362.5,288.5C 361.167,288.5 359.833,288.5 358.5,288.5C 358.5,259.833 358.5,231.167 358.5,202.5 Z"/></g>
<g><path style="opacity:1" fill="#961114" d="M 432.5,211.5 C 430.371,218.419 427.704,225.086 424.5,231.5C 425.833,224.833 427.167,218.167 428.5,211.5C 429.833,211.5 431.167,211.5 432.5,211.5 Z"/></g>
<g><path style="opacity:0.324" fill="#4a0100" d="M 223.5,216.5 C 223.833,216.5 224.167,216.5 224.5,216.5C 224.171,222.537 224.504,228.537 225.5,234.5C 231.298,235.126 236.964,235.793 242.5,236.5C 236.167,236.5 229.833,236.5 223.5,236.5C 223.5,229.833 223.5,223.167 223.5,216.5 Z"/></g>
<g><path style="opacity:1" fill="#be1615" d="M 90.5,239.5 C 90.1667,239.5 89.8333,239.5 89.5,239.5C 89.5,239.167 89.5,238.833 89.5,238.5C 89.5405,235.119 89.2071,231.786 88.5,228.5C 87.5,228.5 86.5,228.5 85.5,228.5C 85.5,231.167 85.5,233.833 85.5,236.5C 85.5,237.5 85.5,238.5 85.5,239.5C 85.1667,239.5 84.8333,239.5 84.5,239.5C 84.3921,234.13 84.7255,228.797 85.5,223.5C 86.8333,223.5 88.1667,223.5 89.5,223.5C 90.2745,228.797 90.6079,234.13 90.5,239.5 Z"/></g>
<g><path style="opacity:0.976" fill="#bc2221" d="M 122.5,202.5 C 127.595,202.221 132.595,202.555 137.5,203.5C 137.259,205.898 137.926,207.898 139.5,209.5C 140.939,211.588 141.606,213.921 141.5,216.5C 141.427,218.027 142.094,219.027 143.5,219.5C 143.5,220.167 143.5,220.833 143.5,221.5C 142.542,221.047 141.708,220.381 141,219.5C 139.195,214.544 137.362,209.544 135.5,204.5C 131.906,203.574 128.24,203.241 124.5,203.5C 123.705,231.826 123.372,260.159 123.5,288.5C 126.167,288.5 128.833,288.5 131.5,288.5C 131.833,288.5 132.167,288.5 132.5,288.5C 132.5,288.833 132.5,289.167 132.5,289.5C 129.167,289.5 125.833,289.5 122.5,289.5C 122.5,260.5 122.5,231.5 122.5,202.5 Z"/></g>
<g><path style="opacity:0.988" fill="#bc1c1b" d="M 155.5,202.5 C 159.5,202.5 163.5,202.5 167.5,202.5C 167.831,230.672 167.498,258.672 166.5,286.5C 166.5,284.167 166.5,281.833 166.5,279.5C 166.5,254.167 166.5,228.833 166.5,203.5C 163.167,203.5 159.833,203.5 156.5,203.5C 156.5,219.5 156.5,235.5 156.5,251.5C 155.839,252.718 155.172,254.051 154.5,255.5C 153.571,254.311 153.238,252.978 153.5,251.5C 154.167,235.167 154.833,218.833 155.5,202.5 Z"/></g>
<g><path style="opacity:0.735" fill="#7a0d0c" d="M 322.5,270.5 C 322.5,270.833 322.5,271.167 322.5,271.5C 321.502,248.673 321.169,225.673 321.5,202.5C 317.167,202.5 312.833,202.5 308.5,202.5C 308.5,230.167 308.5,257.833 308.5,285.5C 315.022,285.177 321.355,285.51 327.5,286.5C 325.833,286.5 324.167,286.5 322.5,286.5C 317.5,286.5 312.5,286.5 307.5,286.5C 307.5,258.167 307.5,229.833 307.5,201.5C 312.5,201.5 317.5,201.5 322.5,201.5C 322.5,224.5 322.5,247.5 322.5,270.5 Z"/></g>
<g><path style="opacity:0.89" fill="#7d1316" d="M 392.5,223.5 C 394.176,224.183 394.843,225.517 394.5,227.5C 392.896,226.713 392.229,225.38 392.5,223.5 Z"/></g>
<g><path style="opacity:0.413" fill="#721112" d="M 358.5,202.5 C 358.5,202.167 358.5,201.833 358.5,201.5C 363.167,201.5 367.833,201.5 372.5,201.5C 373.026,231.306 373.026,260.973 372.5,290.5C 370.265,290.795 368.265,290.461 366.5,289.5C 368.167,289.5 369.833,289.5 371.5,289.5C 371.5,260.5 371.5,231.5 371.5,202.5C 367.833,202.5 364.167,202.5 360.5,202.5C 359.833,202.5 359.167,202.5 358.5,202.5 Z"/></g>
<g><path style="opacity:1" fill="#941515" d="M 413.5,218.5 C 413.5,219.833 413.5,221.167 413.5,222.5C 412.935,224.386 411.935,226.053 410.5,227.5C 408.146,225.754 407.146,223.421 407.5,220.5C 408.338,220.842 408.672,221.508 408.5,222.5C 410.043,224.557 411.043,224.557 411.5,222.5C 411.66,220.847 412.326,219.514 413.5,218.5 Z"/></g>
<g><path style="opacity:0.608" fill="#770d11" d="M 97.5,206.5 C 99.6192,214.62 101.286,222.954 102.5,231.5C 101.833,230.167 101.167,228.833 100.5,227.5C 100.066,222.995 99.066,218.662 97.5,214.5C 97.5,211.833 97.5,209.167 97.5,206.5 Z"/></g>
<g><path style="opacity:0.153" fill="#630706" d="M 74.5,220.5 C 75.0967,220.735 75.4301,221.235 75.5,222C 75.0098,224.346 74.3432,226.513 73.5,228.5C 73.4013,225.763 73.7347,223.096 74.5,220.5 Z"/></g>
<g><path style="opacity:0.941" fill="#860d10" d="M 143.5,222.5 C 145.273,225.18 146.607,228.18 147.5,231.5C 146.542,231.047 145.708,230.381 145,229.5C 144.56,227.134 144.06,224.801 143.5,222.5 Z"/></g>
<g><path style="opacity:0.084" fill="#3f0000" d="M 273.5,216.5 C 273.833,216.5 274.167,216.5 274.5,216.5C 274.334,222.509 274.501,228.509 275,234.5C 280.933,235.148 286.766,235.814 292.5,236.5C 286.167,236.5 279.833,236.5 273.5,236.5C 273.5,229.833 273.5,223.167 273.5,216.5 Z"/></g>
<g><path style="opacity:0.33" fill="#5a0100" d="M 122.5,201.5 C 122.5,201.833 122.5,202.167 122.5,202.5C 122.5,231.5 122.5,260.5 122.5,289.5C 125.833,289.5 129.167,289.5 132.5,289.5C 132.833,289.5 133.167,289.5 133.5,289.5C 129.702,290.483 125.702,290.817 121.5,290.5C 121.169,260.662 121.502,230.995 122.5,201.5 Z"/></g>
<g><path style="opacity:0.406" fill="#5d0304" d="M 155.5,202.5 C 155.5,202.167 155.5,201.833 155.5,201.5C 159.833,201.5 164.167,201.5 168.5,201.5C 168.833,230.174 168.5,258.841 167.5,287.5C 162.314,288.657 156.98,288.657 151.5,287.5C 155.702,287.817 159.702,287.483 163.5,286.5C 164.5,286.5 165.5,286.5 166.5,286.5C 167.498,258.672 167.831,230.672 167.5,202.5C 163.5,202.5 159.5,202.5 155.5,202.5 Z"/></g>
<g><path style="opacity:0.212" fill="#5b080b" d="M 89.5,238.5 C 88.6909,236.708 88.1909,234.708 88,232.5C 87.0656,233.858 86.2323,235.192 85.5,236.5C 85.5,233.833 85.5,231.167 85.5,228.5C 86.5,228.5 87.5,228.5 88.5,228.5C 89.2071,231.786 89.5405,235.119 89.5,238.5 Z"/></g>
<g><path style="opacity:0.914" fill="#841315" d="M 394.5,227.5 C 397.561,231.632 399.561,236.299 400.5,241.5C 400.5,241.833 400.5,242.167 400.5,242.5C 399.883,242.389 399.383,242.056 399,241.5C 397.186,236.902 395.686,232.236 394.5,227.5 Z"/></g>
<g><path style="opacity:0.004" fill="#000000" d="M 332.5,235.5 C 333.833,236.167 333.833,236.167 332.5,235.5 Z"/></g>
<g><path style="opacity:0.624" fill="#7f1616" d="M 423.5,233.5 C 423.598,235.553 422.931,237.22 421.5,238.5C 421.12,236.302 421.787,234.635 423.5,233.5 Z"/></g>
<g><path style="opacity:0.004" fill="#000000" d="M 32.5,236.5 C 33.8333,237.167 33.8333,237.167 32.5,236.5 Z"/></g>
<g><path style="opacity:1" fill="#b72928" d="M 273.5,216.5 C 273.5,223.167 273.5,229.833 273.5,236.5C 279.833,236.5 286.167,236.5 292.5,236.5C 292.5,240.833 292.5,245.167 292.5,249.5C 292.167,249.5 291.833,249.5 291.5,249.5C 291.793,245.563 291.46,241.73 290.5,238C 284.509,237.501 278.509,237.334 272.5,237.5C 272.175,230.313 272.509,223.313 273.5,216.5 Z"/></g>
<g><path style="opacity:0.004" fill="#000000" d="M 499.5,236.5 C 499.5,236.833 499.5,237.167 499.5,237.5C 498.83,237.019 498.83,236.685 499.5,236.5 Z"/></g>
<g><path style="opacity:1" fill="#dd1210" d="M 403.5,209.5 C 403.248,213.639 404.582,216.972 407.5,219.5C 407.5,219.833 407.5,220.167 407.5,220.5C 407.146,223.421 408.146,225.754 410.5,227.5C 411.935,226.053 412.935,224.386 413.5,222.5C 414.964,227.446 414.297,231.946 411.5,236C 410.207,236.49 408.873,236.657 407.5,236.5C 407.817,239.572 407.484,242.572 406.5,245.5C 405.534,243.604 405.201,241.604 405.5,239.5C 404.5,239.5 403.5,239.5 402.5,239.5C 402.5,240.5 402.5,241.5 402.5,242.5C 401.833,242.167 401.167,241.833 400.5,241.5C 399.561,236.299 397.561,231.632 394.5,227.5C 394.843,225.517 394.176,224.183 392.5,223.5C 392.5,223.167 392.5,222.833 392.5,222.5C 392.222,218.268 391.056,214.268 389,210.5C 388.333,208.5 388.333,206.5 389,204.5C 392.409,203.378 395.909,203.211 399.5,204C 400.488,206.167 401.821,208 403.5,209.5 Z"/></g>
<g><path style="opacity:0.007" fill="#0e0000" d="M 408.5,222.5 C 409.5,222.5 410.5,222.5 411.5,222.5C 411.043,224.557 410.043,224.557 408.5,222.5 Z"/></g>
<g><path style="opacity:0.004" fill="#000000" d="M 35.5,238.5 C 36.8333,239.167 36.8333,239.167 35.5,238.5 Z"/></g>
<g><path style="opacity:1" fill="#dc0f0e" d="M 82.5,239.5 C 82.4476,247.069 81.1143,254.402 78.5,261.5C 80.0298,261.939 81.0298,263.272 81.5,265.5C 82.5,265.5 83.5,265.5 84.5,265.5C 84.5,264.5 84.5,263.5 84.5,262.5C 86.8568,262.337 89.1902,262.503 91.5,263C 90.5494,263.718 90.3828,264.551 91,265.5C 92.0736,266.618 93.2402,267.618 94.5,268.5C 90.5408,269.327 86.5408,269.827 82.5,270C 81.3659,271.016 81.6992,271.683 83.5,272C 81.9419,272.21 80.6085,272.71 79.5,273.5C 77.7531,272.019 76.5864,270.019 76,267.5C 75.6667,264.5 75.3333,261.5 75,258.5C 74,260.167 73,261.833 72,263.5C 72.7462,254.523 73.5795,245.523 74.5,236.5C 75.7498,236.423 76.5831,235.756 77,234.5C 77.5382,237.345 78.5382,240.012 80,242.5C 80.8518,241.429 81.6851,240.429 82.5,239.5 Z"/></g>
<g><path style="opacity:0.878" fill="#8d1e1f" d="M 223.5,236.5 C 229.833,236.5 236.167,236.5 242.5,236.5C 243.833,241.167 243.833,245.833 242.5,250.5C 236.167,250.5 229.833,250.5 223.5,250.5C 223.5,250.167 223.5,249.833 223.5,249.5C 229.176,249.666 234.843,249.499 240.5,249C 241.46,245.27 241.793,241.437 241.5,237.5C 235.31,237.823 229.31,237.49 223.5,236.5 Z"/></g>
<g><path style="opacity:1" fill="#c31a19" d="M 360.5,202.5 C 364.167,202.5 367.833,202.5 371.5,202.5C 371.5,231.5 371.5,260.5 371.5,289.5C 369.833,289.5 368.167,289.5 366.5,289.5C 365.167,289.5 363.833,289.5 362.5,289.5C 362.5,289.167 362.5,288.833 362.5,288.5C 361.791,287.596 360.791,287.263 359.5,287.5C 359.169,259.328 359.502,231.328 360.5,203.5C 360.5,203.167 360.5,202.833 360.5,202.5 Z"/></g>
<g><path style="opacity:1" fill="#dc100e" d="M 360.5,203.5 C 363.833,203.5 367.167,203.5 370.5,203.5C 370.79,231.188 370.457,258.855 369.5,286.5C 366.5,286.5 363.5,286.5 360.5,286.5C 360.5,258.833 360.5,231.167 360.5,203.5 Z"/></g>
<g><path style="opacity:0.706" fill="#bf201e" d="M 195.5,202.5 C 195.5,230.167 195.5,257.833 195.5,285.5C 190.833,285.5 186.167,285.5 181.5,285.5C 181.5,257.5 181.5,229.5 181.5,201.5C 186.363,201.181 191.03,201.514 195.5,202.5 Z"/></g>
<g><path style="opacity:1" fill="#db0f0d" d="M 182.5,203.5 C 186.5,203.5 190.5,203.5 194.5,203.5C 194.5,230.5 194.5,257.5 194.5,284.5C 190.5,284.5 186.5,284.5 182.5,284.5C 182.5,257.5 182.5,230.5 182.5,203.5 Z"/></g>
<g><path style="opacity:1" fill="#de0f0e" d="M 418.5,252.5 C 418.557,253.609 418.89,254.609 419.5,255.5C 418.996,259.335 417.996,259.335 416.5,255.5C 415.833,256.833 415.167,258.167 414.5,259.5C 412.477,257.827 410.144,257.16 407.5,257.5C 407.5,255.833 407.5,254.167 407.5,252.5C 406.167,252.5 404.833,252.5 403.5,252.5C 404.601,256.057 405.935,259.557 407.5,263C 407.167,263.5 406.833,264 406.5,264.5C 405.5,263.167 404.5,263.167 403.5,264.5C 402.808,263.975 402.308,263.308 402,262.5C 401.712,255.831 401.878,249.164 402.5,242.5C 402.5,241.5 402.5,240.5 402.5,239.5C 403.5,239.5 404.5,239.5 405.5,239.5C 405.201,241.604 405.534,243.604 406.5,245.5C 407.484,242.572 407.817,239.572 407.5,236.5C 408.873,236.657 410.207,236.49 411.5,236C 414.297,231.946 414.964,227.446 413.5,222.5C 414.156,221.722 414.989,221.056 416,220.5C 416.5,220.833 417,221.167 417.5,221.5C 419.219,224.403 420.886,227.237 422.5,230C 422.167,230.833 421.833,231.667 421.5,232.5C 420.575,231.359 419.741,231.359 419,232.5C 417.648,238.401 416.481,244.401 415.5,250.5C 413.578,251.96 412.911,253.627 413.5,255.5C 414.695,253.703 416.362,252.703 418.5,252.5 Z"/></g>
<g><path style="opacity:1" fill="#b71717" d="M 147.5,233.5 C 148.98,236.388 150.313,239.388 151.5,242.5C 151.584,245.327 152.25,247.994 153.5,250.5C 152.85,250.196 152.183,249.863 151.5,249.5C 149.097,244.424 147.764,239.091 147.5,233.5 Z"/></g>
<g><path style="opacity:0.071" fill="#5d070b" d="M 421.5,239.5 C 421.34,241.153 420.674,242.486 419.5,243.5C 419.157,241.517 419.824,240.183 421.5,239.5 Z"/></g>
<g><path style="opacity:0.565" fill="#460401" d="M 71.5,240.5 C 71.5797,243.781 70.913,246.781 69.5,249.5C 69.4203,246.219 70.087,243.219 71.5,240.5 Z"/></g>
<g><path style="opacity:0.22" fill="#660606" d="M 195.5,202.5 C 196.498,230.328 196.831,258.328 196.5,286.5C 191.57,286.197 186.737,286.531 182,287.5C 181.536,286.906 181.369,286.239 181.5,285.5C 186.167,285.5 190.833,285.5 195.5,285.5C 195.5,257.833 195.5,230.167 195.5,202.5 Z"/></g>
<g><path style="opacity:0.62" fill="#801012" d="M 102.5,233.5 C 106.276,247.877 109.276,262.544 111.5,277.5C 107.391,263.202 104.391,248.535 102.5,233.5 Z"/></g>
<g><path style="opacity:1" fill="#d81211" d="M 100.5,227.5 C 101.167,228.833 101.833,230.167 102.5,231.5C 102.5,232.167 102.5,232.833 102.5,233.5C 104.391,248.535 107.391,263.202 111.5,277.5C 111.5,277.833 111.5,278.167 111.5,278.5C 111.423,282.215 111.756,285.881 112.5,289.5C 108.519,290.021 104.519,290.354 100.5,290.5C 100.737,289.209 100.404,288.209 99.5,287.5C 98.5655,286.432 98.2322,285.099 98.5,283.5C 98.5,279.833 98.5,276.167 98.5,272.5C 92.143,272.476 85.8097,272.81 79.5,273.5C 80.6085,272.71 81.9419,272.21 83.5,272C 81.6992,271.683 81.3659,271.016 82.5,270C 86.5408,269.827 90.5408,269.327 94.5,268.5C 93.2402,267.618 92.0736,266.618 91,265.5C 90.3828,264.551 90.5494,263.718 91.5,263C 89.1902,262.503 86.8568,262.337 84.5,262.5C 84.5,263.5 84.5,264.5 84.5,265.5C 83.5,265.5 82.5,265.5 81.5,265.5C 81.0298,263.272 80.0298,261.939 78.5,261.5C 81.1143,254.402 82.4476,247.069 82.5,239.5C 83.1667,239.5 83.8333,239.5 84.5,239.5C 84.1667,242.833 83.8333,246.167 83.5,249.5C 83.5,250.5 83.5,251.5 83.5,252.5C 82.8826,252.611 82.3826,252.944 82,253.5C 81.5034,255.81 81.3367,258.143 81.5,260.5C 85.4367,260.793 89.27,260.46 93,259.5C 93.4374,252.733 92.9374,246.066 91.5,239.5C 92.1651,244.243 93.3318,248.243 95,251.5C 96.5873,246.483 98.2539,241.483 100,236.5C 100.498,233.518 100.665,230.518 100.5,227.5 Z"/></g>
<g><path style="opacity:0.137" fill="#5d0205" d="M 84.5,239.5 C 84.8333,239.5 85.1667,239.5 85.5,239.5C 85.678,243.122 85.0114,246.456 83.5,249.5C 83.8333,246.167 84.1667,242.833 84.5,239.5 Z"/></g>
<g><path style="opacity:0.404" fill="#6e0a10" d="M 400.5,243.5 C 401.622,245.288 401.789,247.288 401,249.5C 400.261,251.889 399.095,253.889 397.5,255.5C 398.59,251.457 399.59,247.457 400.5,243.5 Z"/></g>
<g><path style="opacity:1" fill="#c31817" d="M 141.5,258.5 C 140.542,256.698 139.875,254.698 139.5,252.5C 139.88,250.302 139.213,248.635 137.5,247.5C 137.5,246.5 137.5,245.5 137.5,244.5C 137.44,243.957 137.107,243.624 136.5,243.5C 135.501,258.485 135.167,273.485 135.5,288.5C 134.5,288.5 133.5,288.5 132.5,288.5C 132.167,288.5 131.833,288.5 131.5,288.5C 132.209,287.596 133.209,287.263 134.5,287.5C 134.5,271.5 134.5,255.5 134.5,239.5C 135.5,239.5 136.5,239.5 137.5,239.5C 138.012,242.347 139.012,245.014 140.5,247.5C 141.246,251.132 141.579,254.798 141.5,258.5 Z"/></g>
<g><path style="opacity:0.22" fill="#590b09" d="M 137.5,247.5 C 139.213,248.635 139.88,250.302 139.5,252.5C 139.167,252.5 138.833,252.5 138.5,252.5C 138.371,250.784 138.038,249.117 137.5,247.5 Z"/></g>
<g><path style="opacity:0.275" fill="#480000" d="M 358.5,201.5 C 358.5,201.833 358.5,202.167 358.5,202.5C 358.5,231.167 358.5,259.833 358.5,288.5C 359.833,288.5 361.167,288.5 362.5,288.5C 362.5,288.833 362.5,289.167 362.5,289.5C 360.833,289.5 359.167,289.5 357.5,289.5C 357.169,259.995 357.502,230.662 358.5,201.5 Z"/></g>
<g><path style="opacity:0.925" fill="#911417" d="M 419.5,244.5 C 419.242,248.367 419.908,252.034 421.5,255.5C 420.833,255.5 420.167,255.5 419.5,255.5C 418.89,254.609 418.557,253.609 418.5,252.5C 416.823,249.385 417.156,246.718 419.5,244.5 Z"/></g>
<g><path style="opacity:0.012" fill="#540000" d="M 138.5,252.5 C 137.833,253.167 137.833,253.167 138.5,252.5 Z"/></g>
<g><path style="opacity:1" fill="#d7100d" d="M 166.5,279.5 C 166.5,281.833 166.5,284.167 166.5,286.5C 165.5,286.5 164.5,286.5 163.5,286.5C 159.833,286.5 156.167,286.5 152.5,286.5C 152.66,284.801 152.494,283.134 152,281.5C 150.678,277.73 148.844,274.397 146.5,271.5C 146.88,269.302 146.213,267.635 144.5,266.5C 144.5,265.5 144.5,264.5 144.5,263.5C 146.068,264.473 147.735,264.64 149.5,264C 148.62,262.644 148.286,261.144 148.5,259.5C 149.5,259.5 150.5,259.5 151.5,259.5C 151.311,263.64 150.644,267.64 149.5,271.5C 150.552,271.649 151.552,271.483 152.5,271C 153.053,269.122 154.053,267.622 155.5,266.5C 155.335,269.518 155.502,272.518 156,275.5C 157.188,274.437 157.688,273.103 157.5,271.5C 158.5,271.5 159.5,271.5 160.5,271.5C 160.969,265.838 161.469,260.171 162,254.5C 162.333,254.833 162.667,255.167 163,255.5C 163.161,260.134 163.994,264.634 165.5,269C 164.312,271.189 164.312,273.356 165.5,275.5C 165.081,276.672 164.415,277.672 163.5,278.5C 164.325,279.386 165.325,279.719 166.5,279.5 Z"/></g>
<g><path style="opacity:1" fill="#d6100e" d="M 211.5,203.5 C 223.345,203.172 235.012,203.505 246.5,204.5C 235.167,204.5 223.833,204.5 212.5,204.5C 212.333,222.503 212.5,240.503 213,258.5C 213.333,258.833 213.667,259.167 214,259.5C 214.333,258.167 214.667,256.833 215,255.5C 215.448,260.53 216.114,265.53 217,270.5C 217.333,265.833 217.667,261.167 218,256.5C 218.583,258.002 219.416,259.335 220.5,260.5C 221.372,264.73 221.705,268.73 221.5,272.5C 222.167,264.677 222.833,257.01 223.5,249.5C 223.5,249.833 223.5,250.167 223.5,250.5C 223.5,257.5 223.5,264.5 223.5,271.5C 230.982,272.492 238.648,272.825 246.5,272.5C 246.5,275.833 246.5,279.167 246.5,282.5C 234.81,282.305 223.144,282.639 211.5,283.5C 211.5,256.833 211.5,230.167 211.5,203.5 Z"/></g>
<g><path style="opacity:0.994" fill="#b91b1a" d="M 77.5,207.5 C 77.8333,207.5 78.1667,207.5 78.5,207.5C 78.6653,211.182 78.4986,214.848 78,218.5C 76.9252,223.485 75.7586,228.485 74.5,233.5C 72.8781,242.328 71.3781,251.328 70,260.5C 69.4338,262.723 68.6005,264.723 67.5,266.5C 68.9685,261.286 69.6351,255.953 69.5,250.5C 69.5,250.167 69.5,249.833 69.5,249.5C 70.913,246.781 71.5797,243.781 71.5,240.5C 71.3336,236.326 72.0003,232.326 73.5,228.5C 74.3432,226.513 75.0098,224.346 75.5,222C 75.4301,221.235 75.0967,220.735 74.5,220.5C 75.2341,219.292 75.5674,217.959 75.5,216.5C 76.9238,214.485 77.5905,212.152 77.5,209.5C 77.5,208.833 77.5,208.167 77.5,207.5 Z"/></g>
<g><path style="opacity:0.271" fill="#720e0e" d="M 89.5,239.5 C 89.8333,239.5 90.1667,239.5 90.5,239.5C 90.8333,239.5 91.1667,239.5 91.5,239.5C 92.9374,246.066 93.4374,252.733 93,259.5C 89.27,260.46 85.4367,260.793 81.5,260.5C 81.3367,258.143 81.5034,255.81 82,253.5C 82.3826,252.944 82.8826,252.611 83.5,252.5C 83.7564,254.792 83.4231,256.959 82.5,259C 86.5708,260.153 89.9042,259.153 92.5,256C 91.1215,250.562 90.1215,245.062 89.5,239.5 Z"/></g>
<g><path style="opacity:0.445" fill="#520303" d="M 223.5,250.5 C 229.833,250.5 236.167,250.5 242.5,250.5C 236.69,251.49 230.69,251.823 224.5,251.5C 224.5,257.833 224.5,264.167 224.5,270.5C 232.5,270.5 240.5,270.5 248.5,270.5C 248.819,275.363 248.486,280.03 247.5,284.5C 247.5,280.167 247.5,275.833 247.5,271.5C 239.5,271.5 231.5,271.5 223.5,271.5C 223.5,264.5 223.5,257.5 223.5,250.5 Z"/></g>
<g><path style="opacity:1" fill="#d7100e" d="M 74.5,233.5 C 74.5,234.5 74.5,235.5 74.5,236.5C 73.5795,245.523 72.7462,254.523 72,263.5C 73,261.833 74,260.167 75,258.5C 75.3333,261.5 75.6667,264.5 76,267.5C 76.5864,270.019 77.7531,272.019 79.5,273.5C 79.5,274.167 79.5,274.833 79.5,275.5C 77.9261,277.102 77.2594,279.102 77.5,281.5C 75.4318,284.763 74.4318,288.43 74.5,292.5C 70.5568,293.486 66.5568,294.152 62.5,294.5C 64.0003,290.67 64.6669,286.67 64.5,282.5C 65.3166,277.111 66.3166,271.777 67.5,266.5C 68.6005,264.723 69.4338,262.723 70,260.5C 71.3781,251.328 72.8781,242.328 74.5,233.5 Z"/></g>
<g><path style="opacity:0.859" fill="#6a0e0f" d="M 397.5,255.5 C 397.38,258.578 396.38,261.245 394.5,263.5C 394.62,260.422 395.62,257.755 397.5,255.5 Z"/></g>
<g><path style="opacity:0.004" fill="#000000" d="M 469.5,258.5 C 470.833,259.167 470.833,259.167 469.5,258.5 Z"/></g>
<g><path style="opacity:1" fill="#c51b18" d="M 322.5,271.5 C 322.5,271.833 322.5,272.167 322.5,272.5C 320.55,267.265 319.883,261.598 320.5,255.5C 320.5,238.5 320.5,221.5 320.5,204.5C 317.038,203.518 313.371,203.185 309.5,203.5C 309.5,230.5 309.5,257.5 309.5,284.5C 317.86,284.831 326.193,284.498 334.5,283.5C 334.833,282.5 335.5,281.833 336.5,281.5C 338.868,283.223 341.534,283.89 344.5,283.5C 344.5,280.5 344.5,277.5 344.5,274.5C 341.287,274.81 338.287,274.477 335.5,273.5C 338.833,273.5 342.167,273.5 345.5,273.5C 345.5,277.833 345.5,282.167 345.5,286.5C 339.5,286.5 333.5,286.5 327.5,286.5C 321.355,285.51 315.022,285.177 308.5,285.5C 308.5,257.833 308.5,230.167 308.5,202.5C 312.833,202.5 317.167,202.5 321.5,202.5C 321.169,225.673 321.502,248.673 322.5,271.5 Z"/></g>
<g><path style="opacity:0.721" fill="#831013" d="M 297.5,202.5 C 297.5,206.833 297.5,211.167 297.5,215.5C 289.5,215.5 281.5,215.5 273.5,215.5C 280.982,214.508 288.648,214.175 296.5,214.5C 296.5,211.167 296.5,207.833 296.5,204.5C 284.678,203.505 272.678,203.172 260.5,203.5C 260.5,229.833 260.5,256.167 260.5,282.5C 264.5,282.5 268.5,282.5 272.5,282.5C 272.5,279.5 272.5,276.5 272.5,273.5C 272.175,265.981 272.508,258.648 273.5,251.5C 273.5,262.5 273.5,273.5 273.5,284.5C 268.766,285.824 263.933,285.824 259,284.5C 258.333,257.167 258.333,229.833 259,202.5C 271.931,201.17 284.765,201.17 297.5,202.5 Z"/></g>
<g><path style="opacity:0.988" fill="#9a1419" d="M 421.5,256.5 C 423.287,259.968 424.62,263.635 425.5,267.5C 422.81,264.453 421.476,260.787 421.5,256.5 Z"/></g>
<g><path style="opacity:0.231" fill="#670507" d="M 141.5,258.5 C 142.935,259.913 143.935,261.58 144.5,263.5C 144.5,264.5 144.5,265.5 144.5,266.5C 142.903,264.152 141.903,261.486 141.5,258.5 Z"/></g>
<g><path style="opacity:0.086" fill="#3a0100" d="M 291.5,249.5 C 291.833,249.5 292.167,249.5 292.5,249.5C 293.738,249.81 293.738,250.31 292.5,251C 286.509,251.499 280.509,251.666 274.5,251.5C 274.828,262.679 274.495,273.679 273.5,284.5C 273.5,273.5 273.5,262.5 273.5,251.5C 279.399,250.795 285.399,250.128 291.5,249.5 Z"/></g>
<g><path style="opacity:1" fill="#d7110f" d="M 400.5,241.5 C 401.167,241.833 401.833,242.167 402.5,242.5C 401.878,249.164 401.712,255.831 402,262.5C 402.308,263.308 402.808,263.975 403.5,264.5C 404.5,263.167 405.5,263.167 406.5,264.5C 406.833,264 407.167,263.5 407.5,263C 405.935,259.557 404.601,256.057 403.5,252.5C 404.833,252.5 406.167,252.5 407.5,252.5C 407.5,254.167 407.5,255.833 407.5,257.5C 410.144,257.16 412.477,257.827 414.5,259.5C 415.167,258.167 415.833,256.833 416.5,255.5C 417.996,259.335 418.996,259.335 419.5,255.5C 420.167,255.5 420.833,255.5 421.5,255.5C 421.5,255.833 421.5,256.167 421.5,256.5C 421.476,260.787 422.81,264.453 425.5,267.5C 425.335,270.518 425.502,273.518 426,276.5C 428.614,278.739 429.114,281.405 427.5,284.5C 430.251,287.055 429.584,288.055 425.5,287.5C 425.5,288.5 425.5,289.5 425.5,290.5C 427.39,290.703 428.89,290.037 430,288.5C 430.494,290.134 430.66,291.801 430.5,293.5C 426.462,293.449 422.795,292.449 419.5,290.5C 417.688,288.539 416.688,286.206 416.5,283.5C 416.785,281.712 416.452,280.045 415.5,278.5C 413.837,275.633 412.17,272.967 410.5,270.5C 410.167,269.167 409.833,267.833 409.5,266.5C 408.434,265.308 407.601,265.641 407,267.5C 406.178,270.117 405.678,272.784 405.5,275.5C 405.5,275.833 405.5,276.167 405.5,276.5C 404.504,276.414 403.671,276.748 403,277.5C 401.183,281.801 399.683,286.134 398.5,290.5C 394.5,290.5 390.5,290.5 386.5,290.5C 386.167,290.5 385.833,290.5 385.5,290.5C 385.196,289.85 384.863,289.183 384.5,288.5C 386.503,285.501 387.503,282.167 387.5,278.5C 387.5,277.833 387.833,277.5 388.5,277.5C 391.577,273.74 393.244,269.407 393.5,264.5C 393.5,263.833 393.833,263.5 394.5,263.5C 396.38,261.245 397.38,258.578 397.5,255.5C 399.095,253.889 400.261,251.889 401,249.5C 401.789,247.288 401.622,245.288 400.5,243.5C 400.5,243.167 400.5,242.833 400.5,242.5C 400.5,242.167 400.5,241.833 400.5,241.5 Z"/></g>
<g><path style="opacity:0.878" fill="#800e15" d="M 144.5,266.5 C 146.213,267.635 146.88,269.302 146.5,271.5C 144.787,270.365 144.12,268.698 144.5,266.5 Z"/></g>
<g><path style="opacity:1" fill="#9d1816" d="M 409.5,266.5 C 408.326,267.514 407.66,268.847 407.5,270.5C 407.598,272.553 406.931,274.22 405.5,275.5C 405.678,272.784 406.178,270.117 407,267.5C 407.601,265.641 408.434,265.308 409.5,266.5 Z"/></g>
<g><path style="opacity:0.184" fill="#460400" d="M 409.5,266.5 C 409.833,267.833 410.167,269.167 410.5,270.5C 409.5,269.167 408.5,269.167 407.5,270.5C 407.66,268.847 408.326,267.514 409.5,266.5 Z"/></g>
<g><path style="opacity:0.006" fill="#190400" d="M 326.5,271.5 C 325.167,271.5 323.833,271.5 322.5,271.5C 322.5,271.167 322.5,270.833 322.5,270.5C 324.001,269.557 325.335,269.891 326.5,271.5 Z"/></g>
<g><path style="opacity:0.717" fill="#780f11" d="M 137.5,244.5 C 136.669,259.328 136.169,274.328 136,289.5C 135.23,290.598 134.397,290.598 133.5,289.5C 133.167,289.5 132.833,289.5 132.5,289.5C 132.5,289.167 132.5,288.833 132.5,288.5C 133.5,288.5 134.5,288.5 135.5,288.5C 135.167,273.485 135.501,258.485 136.5,243.5C 137.107,243.624 137.44,243.957 137.5,244.5 Z"/></g>
<g><path style="opacity:0.95" fill="#be1e1d" d="M 210.5,203.5 C 210.833,203.5 211.167,203.5 211.5,203.5C 211.5,230.167 211.5,256.833 211.5,283.5C 223.144,282.639 234.81,282.305 246.5,282.5C 246.5,279.167 246.5,275.833 246.5,272.5C 238.648,272.825 230.982,272.492 223.5,271.5C 231.5,271.5 239.5,271.5 247.5,271.5C 247.5,275.833 247.5,280.167 247.5,284.5C 235.167,284.5 222.833,284.5 210.5,284.5C 210.5,257.5 210.5,230.5 210.5,203.5 Z"/></g>
<g><path style="opacity:0.89" fill="#7a1013" d="M 69.5,250.5 C 69.6351,255.953 68.9685,261.286 67.5,266.5C 66.3166,271.777 65.3166,277.111 64.5,282.5C 63.8333,284.167 63.1667,285.833 62.5,287.5C 64.6766,275.019 67.0099,262.686 69.5,250.5 Z"/></g>
<g><path style="opacity:0.78" fill="#841313" d="M 393.5,264.5 C 393.244,269.407 391.577,273.74 388.5,277.5C 389.582,272.919 391.248,268.586 393.5,264.5 Z"/></g>
<g><path style="opacity:0.753" fill="#5e090a" d="M 426.5,269.5 C 428.02,271.89 429.02,274.557 429.5,277.5C 427.345,275.383 426.345,272.716 426.5,269.5 Z"/></g>
<g><path style="opacity:1" fill="#b01718" d="M 98.5,283.5 C 98.1667,283.5 97.8333,283.5 97.5,283.5C 96.9618,280.811 96.2951,278.144 95.5,275.5C 90.1876,274.563 84.8543,274.563 79.5,275.5C 79.5,274.833 79.5,274.167 79.5,273.5C 85.8097,272.81 92.143,272.476 98.5,272.5C 98.5,276.167 98.5,279.833 98.5,283.5 Z"/></g>
<g><path style="opacity:1" fill="#d4100f" d="M 296.5,204.5 C 284.746,203.868 273.246,204.535 262,206.5C 261.99,223.163 262.323,239.83 263,256.5C 263.414,256.043 263.914,255.709 264.5,255.5C 265.177,259.653 266.177,263.653 267.5,267.5C 267.563,269.481 266.896,271.148 265.5,272.5C 267.882,272.962 270.215,273.295 272.5,273.5C 272.5,276.5 272.5,279.5 272.5,282.5C 268.5,282.5 264.5,282.5 260.5,282.5C 260.5,256.167 260.5,229.833 260.5,203.5C 272.678,203.172 284.678,203.505 296.5,204.5 Z"/></g>
<g><path style="opacity:1" fill="#d6100e" d="M 320.5,204.5 C 317.167,204.5 313.833,204.5 310.5,204.5C 310.2,225.52 310.534,246.52 311.5,267.5C 312.101,271.378 312.935,271.378 314,267.5C 315.395,268.815 316.395,268.481 317,266.5C 317.186,268.9 317.686,271.234 318.5,273.5C 319.167,267.346 319.833,261.346 320.5,255.5C 319.883,261.598 320.55,267.265 322.5,272.5C 326.768,273.373 331.102,273.706 335.5,273.5C 338.287,274.477 341.287,274.81 344.5,274.5C 344.5,277.5 344.5,280.5 344.5,283.5C 341.534,283.89 338.868,283.223 336.5,281.5C 335.5,281.833 334.833,282.5 334.5,283.5C 326.193,284.498 317.86,284.831 309.5,284.5C 309.5,257.5 309.5,230.5 309.5,203.5C 313.371,203.185 317.038,203.518 320.5,204.5 Z"/></g>
<g><path style="opacity:0.996" fill="#9a1616" d="M 146.5,271.5 C 148.844,274.397 150.678,277.73 152,281.5C 152.494,283.134 152.66,284.801 152.5,286.5C 156.167,286.5 159.833,286.5 163.5,286.5C 159.702,287.483 155.702,287.817 151.5,287.5C 149.241,282.498 147.574,277.164 146.5,271.5 Z"/></g>
<g><path style="opacity:1" fill="#6a1413" d="M 322.5,272.5 C 322.5,272.167 322.5,271.833 322.5,271.5C 323.833,271.5 325.167,271.5 326.5,271.5C 333.241,271.171 339.908,271.671 346.5,273C 347.635,277.748 347.802,282.581 347,287.5C 345.938,288.097 344.772,288.43 343.5,288.5C 336.34,287.941 329.34,287.275 322.5,286.5C 324.167,286.5 325.833,286.5 327.5,286.5C 333.5,286.5 339.5,286.5 345.5,286.5C 345.5,282.167 345.5,277.833 345.5,273.5C 342.167,273.5 338.833,273.5 335.5,273.5C 331.102,273.706 326.768,273.373 322.5,272.5 Z"/></g>
<g><path style="opacity:0.004" fill="#000000" d="M 440.5,277.5 C 441.833,278.167 441.833,278.167 440.5,277.5 Z"/></g>
<g><path style="opacity:1" fill="#9c1616" d="M 410.5,270.5 C 412.17,272.967 413.837,275.633 415.5,278.5C 416.452,280.045 416.785,281.712 416.5,283.5C 416.167,283.5 415.833,283.5 415.5,283.5C 413.433,279.394 411.767,275.061 410.5,270.5 Z"/></g>
<g><path style="opacity:0.992" fill="#731217" d="M 429.5,277.5 C 430.921,280.294 431.921,283.294 432.5,286.5C 430.145,284.077 429.145,281.077 429.5,277.5 Z"/></g>
<g><path style="opacity:0.996" fill="#851414" d="M 405.5,276.5 C 403.508,281.471 401.508,286.471 399.5,291.5C 395.208,292.274 390.875,292.274 386.5,291.5C 386.5,291.167 386.5,290.833 386.5,290.5C 390.5,290.5 394.5,290.5 398.5,290.5C 399.683,286.134 401.183,281.801 403,277.5C 403.671,276.748 404.504,276.414 405.5,276.5 Z"/></g>
<g><path style="opacity:1" fill="#c71614" d="M 425.5,267.5 C 426.338,267.842 426.672,268.508 426.5,269.5C 426.345,272.716 427.345,275.383 429.5,277.5C 429.145,281.077 430.145,284.077 432.5,286.5C 433.167,286.5 433.5,286.833 433.5,287.5C 433.5,289.833 433.5,292.167 433.5,294.5C 429.167,294.5 424.833,294.5 420.5,294.5C 420.167,294.5 419.833,294.5 419.5,294.5C 419.5,293.167 419.5,291.833 419.5,290.5C 422.795,292.449 426.462,293.449 430.5,293.5C 430.66,291.801 430.494,290.134 430,288.5C 428.89,290.037 427.39,290.703 425.5,290.5C 425.5,289.5 425.5,288.5 425.5,287.5C 429.584,288.055 430.251,287.055 427.5,284.5C 429.114,281.405 428.614,278.739 426,276.5C 425.502,273.518 425.335,270.518 425.5,267.5 Z"/></g>
<g><path style="opacity:1" fill="#911719" d="M 111.5,278.5 C 113.011,281.544 113.678,284.878 113.5,288.5C 113.218,289.778 112.551,290.778 111.5,291.5C 107.352,292.644 103.352,292.644 99.5,291.5C 99.5,290.167 99.5,288.833 99.5,287.5C 100.404,288.209 100.737,289.209 100.5,290.5C 104.519,290.354 108.519,290.021 112.5,289.5C 111.756,285.881 111.423,282.215 111.5,278.5 Z"/></g>
<g><path style="opacity:0.004" fill="#000000" d="M 2.5,287.5 C 3.83333,288.167 3.83333,288.167 2.5,287.5 Z"/></g>
<g><path style="opacity:0.176" fill="#500607" d="M 79.5,275.5 C 78.9037,282.108 77.5703,288.442 75.5,294.5C 75.6871,290.087 76.3538,285.754 77.5,281.5C 77.2594,279.102 77.9261,277.102 79.5,275.5 Z"/></g>
<g><path style="opacity:0.361" fill="#500d07" d="M 97.5,283.5 C 97.8333,283.5 98.1667,283.5 98.5,283.5C 98.2322,285.099 98.5655,286.432 99.5,287.5C 99.5,288.833 99.5,290.167 99.5,291.5C 97.9605,289.162 97.2938,286.495 97.5,283.5 Z"/></g>
<g><path style="opacity:0.298" fill="#320602" d="M 383.5,287.5 C 383.285,289.179 383.952,290.179 385.5,290.5C 385.833,290.5 386.167,290.5 386.5,290.5C 386.5,290.833 386.5,291.167 386.5,291.5C 385.167,291.5 383.833,291.5 382.5,291.5C 382.232,289.901 382.566,288.568 383.5,287.5 Z"/></g>
<g><path style="opacity:1" fill="#9d201c" d="M 387.5,278.5 C 387.503,282.167 386.503,285.501 384.5,288.5C 384.863,289.183 385.196,289.85 385.5,290.5C 383.952,290.179 383.285,289.179 383.5,287.5C 384.463,284.256 385.796,281.256 387.5,278.5 Z"/></g>
<g><path style="opacity:0.043" fill="#420501" d="M 113.5,288.5 C 114.404,289.209 114.737,290.209 114.5,291.5C 113.5,291.5 112.5,291.5 111.5,291.5C 112.551,290.778 113.218,289.778 113.5,288.5 Z"/></g>
<g><path style="opacity:0.004" fill="#000000" d="M 293.5,290.5 C 294.833,291.167 294.833,291.167 293.5,290.5 Z"/></g>
<g><path style="opacity:0.871" fill="#6c0e14" d="M 415.5,283.5 C 415.833,283.5 416.167,283.5 416.5,283.5C 416.688,286.206 417.688,288.539 419.5,290.5C 419.5,291.833 419.5,293.167 419.5,294.5C 417.358,291.2 416.025,287.533 415.5,283.5 Z"/></g>
<g><path style="opacity:0.98" fill="#aa1b19" d="M 77.5,281.5 C 76.3538,285.754 75.6871,290.087 75.5,294.5C 73.9582,295.301 72.2915,295.634 70.5,295.5C 67.5,295.5 64.5,295.5 61.5,295.5C 61.5,294.167 61.5,292.833 61.5,291.5C 61.4326,290.041 61.7659,288.708 62.5,287.5C 63.1667,285.833 63.8333,284.167 64.5,282.5C 64.6669,286.67 64.0003,290.67 62.5,294.5C 66.5568,294.152 70.5568,293.486 74.5,292.5C 74.4318,288.43 75.4318,284.763 77.5,281.5 Z"/></g>
<g><path style="opacity:1" fill="#9a181b" d="M 433.5,287.5 C 434.458,289.302 435.125,291.302 435.5,293.5C 433.012,295.388 430.012,296.055 426.5,295.5C 424.265,295.795 422.265,295.461 420.5,294.5C 424.833,294.5 429.167,294.5 433.5,294.5C 433.5,292.167 433.5,289.833 433.5,287.5 Z"/></g>
<g><path style="opacity:0.165" fill="#410506" d="M 61.5,291.5 C 61.5,292.833 61.5,294.167 61.5,295.5C 64.5,295.5 67.5,295.5 70.5,295.5C 67.3752,296.479 64.0419,296.813 60.5,296.5C 60.2155,294.585 60.5489,292.919 61.5,291.5 Z"/></g>
<g><path style="opacity:0.224" fill="#4a0a09" d="M 435.5,293.5 C 436.404,294.209 436.737,295.209 436.5,296.5C 432.958,296.813 429.625,296.479 426.5,295.5C 430.012,296.055 433.012,295.388 435.5,293.5 Z"/></g>
<g><path style="opacity:0.004" fill="#000000" d="M 216.5,299.5 C 217.833,300.167 217.833,300.167 216.5,299.5 Z"/></g>
<g><path style="opacity:0.004" fill="#000000" d="M 187.5,302.5 C 188.833,303.167 188.833,303.167 187.5,302.5 Z"/></g>
<g><path style="opacity:0.004" fill="#000000" d="M 415.5,304.5 C 416.833,305.167 416.833,305.167 415.5,304.5 Z"/></g>
<g><path style="opacity:0.004" fill="#000000" d="M 29.5,308.5 C 30.8333,309.167 30.8333,309.167 29.5,308.5 Z"/></g>
<g><path style="opacity:0.004" fill="#000000" d="M 308.5,308.5 C 309.833,309.167 309.833,309.167 308.5,308.5 Z"/></g>
<g><path style="opacity:0.004" fill="#000000" d="M 38.5,315.5 C 39.8333,316.167 39.8333,316.167 38.5,315.5 Z"/></g>
<g><path style="opacity:0.004" fill="#000000" d="M 273.5,315.5 C 274.833,316.167 274.833,316.167 273.5,315.5 Z"/></g>
<g><path style="opacity:0.004" fill="#000000" d="M 264.5,316.5 C 265.833,317.167 265.833,317.167 264.5,316.5 Z"/></g>
<g><path style="opacity:0.004" fill="#000000" d="M 91.5,322.5 C 92.8333,323.167 92.8333,323.167 91.5,322.5 Z"/></g>
<g><path style="opacity:0.004" fill="#000000" d="M 5.5,346.5 C 6.83333,347.167 6.83333,347.167 5.5,346.5 Z"/></g>
<g><path style="opacity:0.004" fill="#000000" d="M 347.5,352.5 C 348.833,353.167 348.833,353.167 347.5,352.5 Z"/></g>
<g><path style="opacity:0.004" fill="#000000" d="M 94.5,354.5 C 95.8333,355.167 95.8333,355.167 94.5,354.5 Z"/></g>
<g><path style="opacity:0.004" fill="#000000" d="M 261.5,364.5 C 262.833,365.167 262.833,365.167 261.5,364.5 Z"/></g>
<g><path style="opacity:0.004" fill="#000000" d="M 302.5,365.5 C 303.833,366.167 303.833,366.167 302.5,365.5 Z"/></g>
<g><path style="opacity:0.004" fill="#000000" d="M 385.5,366.5 C 386.833,367.167 386.833,367.167 385.5,366.5 Z"/></g>
<g><path style="opacity:0.004" fill="#000000" d="M 450.5,369.5 C 451.833,370.167 451.833,370.167 450.5,369.5 Z"/></g>
<g><path style="opacity:0.004" fill="#000000" d="M 20.5,394.5 C 21.8333,395.167 21.8333,395.167 20.5,394.5 Z"/></g>
<g><path style="opacity:0.004" fill="#000000" d="M 124.5,400.5 C 125.833,401.167 125.833,401.167 124.5,400.5 Z"/></g>
<g><path style="opacity:0.004" fill="#000000" d="M 295.5,410.5 C 296.833,411.167 296.833,411.167 295.5,410.5 Z"/></g>
<g><path style="opacity:0.004" fill="#000000" d="M 15.5,414.5 C 16.8333,415.167 16.8333,415.167 15.5,414.5 Z"/></g>
<g><path style="opacity:0.004" fill="#000000" d="M 291.5,416.5 C 292.833,417.167 292.833,417.167 291.5,416.5 Z"/></g>
<g><path style="opacity:0.004" fill="#000000" d="M 473.5,418.5 C 474.833,419.167 474.833,419.167 473.5,418.5 Z"/></g>
<g><path style="opacity:0.004" fill="#000000" d="M 387.5,427.5 C 388.833,428.167 388.833,428.167 387.5,427.5 Z"/></g>
<g><path style="opacity:0.004" fill="#000000" d="M 390.5,438.5 C 391.833,439.167 391.833,439.167 390.5,438.5 Z"/></g>
<g><path style="opacity:0.004" fill="#000000" d="M 136.5,441.5 C 137.833,442.167 137.833,442.167 136.5,441.5 Z"/></g>
<g><path style="opacity:0.004" fill="#000000" d="M 384.5,451.5 C 385.833,452.167 385.833,452.167 384.5,451.5 Z"/></g>
<g><path style="opacity:0.004" fill="#000000" d="M 134.5,454.5 C 135.833,455.167 135.833,455.167 134.5,454.5 Z"/></g>
<g><path style="opacity:0.004" fill="#000000" d="M 143.5,455.5 C 144.833,456.167 144.833,456.167 143.5,455.5 Z"/></g>
<g><path style="opacity:0.004" fill="#000000" d="M 161.5,455.5 C 162.833,456.167 162.833,456.167 161.5,455.5 Z"/></g>
<g><path style="opacity:0.004" fill="#000000" d="M 165.5,460.5 C 166.833,461.167 166.833,461.167 165.5,460.5 Z"/></g>
<g><path style="opacity:0.004" fill="#000000" d="M 264.5,473.5 C 265.833,474.167 265.833,474.167 264.5,473.5 Z"/></g>
<g><path style="opacity:0.004" fill="#000000" d="M 238.5,474.5 C 239.833,475.167 239.833,475.167 238.5,474.5 Z"/></g>
<g><path style="opacity:0.004" fill="#000000" d="M 71.5,477.5 C 72.8333,478.167 72.8333,478.167 71.5,477.5 Z"/></g>
</svg>
